<?xml version="1.0" encoding="utf-8"?>
<!-- Generator: Adobe Illustrator 26.5.0, SVG Export Plug-In . SVG Version: 6.00 Build 0)  -->
<svg version="1.1" id="Layer_1" xmlns="http://www.w3.org/2000/svg" xmlns:xlink="http://www.w3.org/1999/xlink" x="0px" y="0px"
	 viewBox="0 0 187.7 246.8" style="enable-background:new 0 0 187.7 246.8;" xml:space="preserve">
<path d="M159.8,246.8H27.9C12.5,246.8,0,234.3,0,218.9v-191C0,12.5,12.5,0,27.9,0h85.2l74.6,76.1v142.8
	C187.7,234.3,175.2,246.8,159.8,246.8z"/>
<g id="NC-Flat">
	<circle cx="94" cy="150" r="66.5"/>
	<circle cx="94" cy="150" r="35"/>
	<g id="NC-Nodes">
		<rect x="43" y="105.1" transform="matrix(0.7062 -0.708 0.708 0.7062 -53.8743 86.4948)" width="68.6" height="6"/>
		<polygon points="112.1,192.4 46.7,127.1 52.5,121.3 117.9,186.7 		"/>
		<circle cx="98" cy="88.2" r="12.1"/>
		<circle cx="55.7" cy="129.6" r="17.5"/>
		<circle cx="123.6" cy="197.4" r="26.4"/>
	</g>
</g>
<path d="M187.7,76.1h-52.5c-12.2,0-22.1-9.9-22.1-22.1v0V0L187.7,76.1z"/>
</svg>
