<?xml version="1.0" encoding="utf-8"?>
<!-- Generator: Adobe Illustrator 26.5.0, SVG Export Plug-In . SVG Version: 6.00 Build 0)  -->
<svg version="1.1" id="Layer_1"
  xmlns="http://www.w3.org/2000/svg"
  xmlns:xlink="http://www.w3.org/1999/xlink" x="0px" y="0px" viewBox="0 0 139.8 167.5">
  <path class="st0" d="M69.9,0C46.1,0,26.8,21.4,26.8,47.8c-0.1,11.6,3.8,22.9,11.1,32l64-64C94,6.1,82.6,0,69.9,0z"/>
  <path class="st0" d="M37.9,79.8c7.9,9.7,19.3,15.8,32,15.8c23.8,0,43.1-21.4,43.1-47.8c0.1-11.6-3.8-22.9-11.1-32L37.9,79.8z"/>
  <path class="st0" d="M94,103.4c-4.1,0-13.6-7.5-10.9-11.3H56.6c2.7,3.8-6.8,11.3-10.9,11.3l24.2,10.8L94,103.4z"/>
  <path class="st0" d="M100.3,105.3l-58.6,58.6C26.5,160,12.3,152.8,0,143c9.2-20.1,27.7-35.5,50.2-41.3c5.9,3.8,12.7,5.8,19.7,5.9
	c7-0.1,13.8-2.1,19.7-5.9C93.3,102.7,96.8,103.9,100.3,105.3z"/>
  <path class="st0" d="M139.8,143c-27.6,22-63.9,29.8-98.1,20.9l58.6-58.6C117.8,112.5,131.9,125.9,139.8,143z"/>
</svg>
