<svg xmlns="http://www.w3.org/2000/svg"
    xmlns:xlink="http://www.w3.org/1999/xlink" width="198.26" height="178.3" viewBox="0 0 198.26 150">
    <g id="Layer_2" data-name="Layer 2">
        <g id="Create_Button" data-name="Create Button">
            <g style="clip-path:url(#clip-path)">
                <path d="M187.6,86.42a38.51,38.51,0,0,1-4.46,18.76,36.42,36.42,0,0,1-3.17,4.91c-10.39,13.71-29.72,21.21-47.19,33.37-51.57,35.87-57.15-21.61-54.82-57A65.91,65.91,0,0,1,92.26,49a55.57,55.57,0,0,1,5.57-5.9,51.09,51.09,0,0,1,35-13.73c23.35,0,43.28,15.19,51.19,36.58a59.2,59.2,0,0,1,3.63,20.46Z" transform="translate(-0.3 -29.38)" style="fill:#5e65ea"/>
                <path d="M144.46,42.24,92.26,49a55.57,55.57,0,0,1,5.57-5.9Z" transform="translate(-0.3 -29.38)" style="fill:#ccc"/>
                <path d="M183.14,105.18a36.42,36.42,0,0,1-3.17,4.91l-44.71-5.8Z" transform="translate(-0.3 -29.38)" style="fill:#ccc"/>
                <path d="M185.79,71.84,110,61.25,184,66A57.11,57.11,0,0,1,185.79,71.84Z" transform="translate(-0.3 -29.38)" style="fill:#ccc"/>
                <path d="M83.1,44.58c0,.14,0,.29,0,.43a5.63,5.63,0,0,1-5.86,5.46,5.79,5.79,0,0,1-5.07-6.32,6.39,6.39,0,0,1,.62-2.33,6,6,0,0,1,.4-.7,5.24,5.24,0,0,1,7.65-1.34,6.06,6.06,0,0,1,2.26,4.32C83.09,44.25,83.1,44.42,83.1,44.58Z" transform="translate(-0.3 -29.38)" style="fill:#6c63ff"/>
                <path d="M83.1,44.58c0,.14,0,.29,0,.43l-8.2-1.07,8.2.16C83.09,44.25,83.1,44.42,83.1,44.58Z" transform="translate(-0.3 -29.38)" style="fill:#d0cde1"/>
                <path d="M81.14,47.55l-7.59,1a5.89,5.89,0,0,1-.58-.83Z" transform="translate(-0.3 -29.38)" style="fill:#d0cde1"/>
                <path d="M79,41l-6.22.81a6,6,0,0,1,.4-.7Z" transform="translate(-0.3 -29.38)" style="fill:#d0cde1"/>
                <path d="M158.2,151l-.2.37a5.25,5.25,0,0,1-7.56,1.86,6.18,6.18,0,0,1-1.72-8.14,5.55,5.55,0,0,1,1.56-1.74,4.59,4.59,0,0,1,.66-.42,5.3,5.3,0,0,1,7.33,2.69,6.35,6.35,0,0,1,.12,5C158.33,150.66,158.27,150.81,158.2,151Z" transform="translate(-0.3 -29.38)" style="fill:#6c63ff"/>
                <path d="M158.2,151l-.2.37-6.79-5.08,7.18,4.28C158.33,150.66,158.27,150.81,158.2,151Z" transform="translate(-0.3 -29.38)" style="fill:#d0cde1"/>
                <path d="M155.17,152.59l-7.13-3a6.09,6.09,0,0,1-.15-1Z" transform="translate(-0.3 -29.38)" style="fill:#d0cde1"/>
                <path d="M156.12,145.73l-5.84-2.43a4.59,4.59,0,0,1,.66-.42Z" transform="translate(-0.3 -29.38)" style="fill:#d0cde1"/>
                <path d="M197,49.1l.27.32a6.24,6.24,0,0,1-.66,8.33A5.21,5.21,0,0,1,188.9,57a6.15,6.15,0,0,1-1.07-2.14,5.39,5.39,0,0,1-.16-.8,5.84,5.84,0,0,1,4.61-6.71,5.2,5.2,0,0,1,4.4,1.38C196.8,48.88,196.9,49,197,49.1Z" transform="translate(-0.3 -29.38)" style="fill:#6c63ff"/>
                <path d="M197,49.1l.27.32-6.56,5.42,6-6.07C196.8,48.88,196.9,49,197,49.1Z" transform="translate(-0.3 -29.38)" style="fill:#d0cde1"/>
                <path d="M197.54,52.71l-4.8,6.42a6.08,6.08,0,0,1-1-.16Z" transform="translate(-0.3 -29.38)" style="fill:#d0cde1"/>
                <path d="M191.76,49.65l-3.93,5.25a5.39,5.39,0,0,1-.16-.8Z" transform="translate(-0.3 -29.38)" style="fill:#d0cde1"/>
                <path d="M94.2,158s12,.54,12,3.78-13.53,0-13.53,0Z" transform="translate(-0.3 -29.38)" style="fill:#a0616a"/>
                <path d="M76.16,207.68l-22.54-1.62-1-13-5,11.34-22-3.24c.5-20.53,8.52-40.52,9-43.22s1.69-13.86,1.69-13.86c2.19-5,13.67-5.48,22.66-5,3.73.18,7,.53,9.08.77,1.35.17,2.14.29,2.14.29,3.59,4,5.91,9.43,7.33,15.51C82.61,177.56,76.16,207.68,76.16,207.68Z" transform="translate(-0.3 -29.38)" style="fill:#2f2e41"/>
                <ellipse cx="50.81" cy="39.46" rx="12.53" ry="13.51" style="fill:#a0616a"/>
                <path d="M42.59,72.09s-3.5,16.74-9,21.61,21.55,0,21.55,0-6-10.81-1.5-15.67S42.59,72.09,42.59,72.09Z" transform="translate(-0.3 -29.38)" style="fill:#a0616a"/>
                <path d="M68.15,141.24l-8.32,1L36.58,145l-.31-.9c-1.68-5-9.82-29.12-10.71-36.38-1-8.1,9.52-17.83,9.52-17.83s10-2.16,13-2.16,15,4.87,15,4.87l4.48,43.49.39,3.76Z" transform="translate(-0.3 -29.38)" style="fill:#ccc"/>
                <path d="M77.48,155.67,60.63,145s-.29-1-.8-2.79c-.25-.88-.55-1.93-.9-3.13-1.94-6.73-5.2-17.84-7.82-26-4-12.42,15.53,22.15,15.53,22.15l1,.82.39,3.76c1.35.17,2.14.29,2.14.29C73.74,144.15,76.06,149.59,77.48,155.67Z" transform="translate(-0.3 -29.38)" style="opacity:0.15000000596046448;isolation:isolate"/>
                <path d="M55.12,93.7s-5,7-1,19.44S63.64,145,63.64,145L92.7,163.38l4-5.4L69.65,135.29s-1-41-6-42.67A9.67,9.67,0,0,0,55.12,93.7Z" transform="translate(-0.3 -29.38)" style="fill:#ccc"/>
                <path d="M30.32,141s7,15.66,10,14-7.52-17.83-7.52-17.83Z" transform="translate(-0.3 -29.38)" style="fill:#a0616a"/>
                <path d="M29.57,98,3,121.79s-10,7.56,8.52,13,20,8.65,20,8.65,2-7,4.51-6L14.53,126.11l17.54-11.35Z" transform="translate(-0.3 -29.38)" style="fill:#ccc"/>
                <path d="M18.89,79.93A70.07,70.07,0,0,0,26,75.88c-.19-5.89.48-11.23,2.45-14.07,1.11-2.7,3.43-5.41,5.24-7.54C38.15,49,48,46.11,49.76,48.73,63,49,64.39,60.19,64.39,60.19c-.07,4.68-4.58,4.83-8.53,4.66.35,3.19-.59,6.51-3.32,8-5.22,2.82-6.79,6.48-4.18,9s7.31,9.29,1,11-7,5.07-5.22,6.48S40,96.75,40,96.75s-1,6.76-6.52,5.07A3.25,3.25,0,0,1,32,100.7c-1.48,1.76-2.8,2.79-3.8,2.8-5.7,0-5-6.78-5-6.78s-6.77,2-4.66,1.23,2.2-4.31-3.41-7.75S15.74,81.61,18.89,79.93Z" transform="translate(-0.3 -29.38)" style="fill:#2f2e41"/>
                <path d="M88.84,97.58l-.09,0,.22.91a26,26,0,0,0,.91,3.73l6.5,26.65a4.33,4.33,0,0,0,3.42,3.32l13.26,2.21a4.11,4.11,0,0,0,4.33-2.33L130,106.67a21.91,21.91,0,0,0,1.08-2.17l.43-.86h-.07c4.8-12.22-.51-26.32-11.84-31.48s-24.41.55-29.2,12.77a25.73,25.73,0,0,0-1.55,12.66Z" transform="translate(-0.3 -29.38)" style="fill:#3f3d56"/>
                <path d="M113.87,136.12a5.49,5.49,0,0,1-.7-.05l-13.86-2.32a4.7,4.7,0,0,1-3.72-3.62l-6.8-27.86a25.92,25.92,0,0,1-1-3.91l-.18-1.22C86,83.27,95.11,70.58,108,68.8a21.93,21.93,0,0,1,6.57.09l-.06.42c-12.61-2.09-24.41,7.23-26.35,20.83a26.85,26.85,0,0,0-.06,7.22l.14.91a26.76,26.76,0,0,0,.94,3.88L96,130a4.32,4.32,0,0,0,3.4,3.31l13.86,2.31a4.11,4.11,0,0,0,4.33-2.33l.35.2A4.55,4.55,0,0,1,113.87,136.12Z" transform="translate(-0.3 -29.38)" style="fill:#d0cde1"/>
                <polygon points="108.65 99.08 117.08 74.25 117.56 74.44 109.12 99.27 108.65 99.08" style="fill:#d0cde1"/>
                <polygon points="102.81 71.98 103.31 71.95 104.39 98.37 103.88 98.39 102.81 71.98" style="fill:#d0cde1"/>
                <path d="M112.7,148.75l-17.76-3a.54.54,0,0,1-.42-.63.51.51,0,0,1,.57-.45l17.76,3a.55.55,0,0,1,.43.62.51.51,0,0,1-.57.46Z" transform="translate(-0.3 -29.38)" style="fill:#3f3d56"/>
                <path d="M113.16,144.69l-17.77-3a.54.54,0,0,1-.42-.62.51.51,0,0,1,.57-.46h0l17.76,3a.54.54,0,0,1,.43.62.52.52,0,0,1-.58.46Z" transform="translate(-0.3 -29.38)" style="fill:#3f3d56"/>
                <path d="M113.61,140.62l-17.76-3a.54.54,0,0,1-.42-.63.51.51,0,0,1,.57-.45l17.77,3a.56.56,0,0,1,.42.63.53.53,0,0,1-.58.45Z" transform="translate(-0.3 -29.38)" style="fill:#3f3d56"/>
                <path d="M103.27,151.12c3.52.59,6.68-1.05,7-3.67l-12.75-2.12C97.19,147.94,99.74,150.53,103.27,151.12Z" transform="translate(-0.3 -29.38)" style="fill:#3f3d56"/>
                <path d="M109.65,98.4a3.11,3.11,0,0,1-1.73-1.2l-.33-.44a4.27,4.27,0,0,0-1.3-1.31c-1.17-.58-2.54.24-3.72,1.11l-.29-.45c1.31-1,2.83-1.85,4.22-1.15A4.49,4.49,0,0,1,108,96.42l.33.42c.35.45,1.07,1.18,1.83,1a2.6,2.6,0,0,0,.88-.51,4.83,4.83,0,0,1,.62-.42,2.36,2.36,0,0,1,2.73.41,4.82,4.82,0,0,1,.36.43,1.89,1.89,0,0,0,.73.64c.41.14.85-.12,1.31-.39a2.54,2.54,0,0,1,1.53-.49h.06c1,.16,1.46,1.35,1.72,2.24l-.49.16c-.35-1.2-.78-1.8-1.34-1.87a2.19,2.19,0,0,0-1.24.43,2,2,0,0,1-1.71.43,2.38,2.38,0,0,1-1-.8,3,3,0,0,0-.33-.38,1.87,1.87,0,0,0-2.15-.33,4.24,4.24,0,0,0-.56.38,2.69,2.69,0,0,1-1.07.59A1.46,1.46,0,0,1,109.65,98.4Z" transform="translate(-0.3 -29.38)" style="fill:#d0cde1"/>
            </g>
        </g>
    </g>
</svg>
