<?xml version="1.0" encoding="UTF-8" standalone="no"?>
<svg
   id="Layer_1"
   data-name="Layer 1"
   viewBox="0 0 545.52 131.61"
   version="1.1"
   sodipodi:docname="NC-Type and Mark Wide Pos.svg"
   inkscape:version="1.4.3 (0d15f75, 2025-12-25)"
   xmlns:inkscape="http://www.inkscape.org/namespaces/inkscape"
   xmlns:sodipodi="http://sodipodi.sourceforge.net/DTD/sodipodi-0.dtd"
   xmlns="http://www.w3.org/2000/svg"
   xmlns:svg="http://www.w3.org/2000/svg">
  <sodipodi:namedview
     id="namedview21"
     pagecolor="#ffffff"
     bordercolor="#000000"
     borderopacity="0.25"
     inkscape:showpageshadow="2"
     inkscape:pageopacity="0.0"
     inkscape:pagecheckerboard="true"
     inkscape:deskcolor="#d1d1d1"
     inkscape:zoom="2.0129446"
     inkscape:cx="267.76693"
     inkscape:cy="85.446962"
     inkscape:window-width="2036"
     inkscape:window-height="1177"
     inkscape:window-x="10"
     inkscape:window-y="49"
     inkscape:window-maximized="0"
     inkscape:current-layer="Layer_1" />
  <defs
     id="defs1">
    <style
       id="style1">.cls-1{fill:#ce1e55;}.cls-2{fill:#e2215b;}.cls-3{fill:#079b7f;}.cls-4{fill:#00c9a2;}.cls-5{fill:#f2b700;}.cls-6{fill:#daa727;}.cls-7{fill:#0fa3cf;}.cls-8{fill:#13b3e2;}.cls-9{fill:#fff;}.cls-10{fill:none;}</style>
  </defs>
  <g
     id="g21"
     inkscape:label="mark"
     transform="matrix(0.70554568,0,0,0.70554568,-14.694769,19.295427)">
    <path
       class="cls-1"
       d="M 52.07,27.32 A 27.21,27.21 0 0 1 98.51,8.08 L 60,46.57 A 27.14,27.14 0 0 1 52,27.32"
       id="path1" />
    <path
       class="cls-2"
       d="M 79.22,27.36 A 27.21,27.21 0 0 1 40.74,65.83 Z"
       id="path2" />
    <path
       class="cls-3"
       d="M 59.94,112.24 A 27.2,27.2 0 0 1 40.71,65.8 l 38.48,38.48 a 27.17,27.17 0 0 1 -19.25,8"
       id="path3" />
    <path
       class="cls-4"
       d="m 60.21,85.28 a 27.21,27.21 0 1 1 38.48,38.48 z"
       id="path4" />
    <path
       class="cls-5"
       d="M 110,85.3 A 27.2,27.2 0 0 1 156.44,66.06 L 118,104.54 A 27.17,27.17 0 0 1 110,85.3"
       id="path5" />
    <path
       class="cls-6"
       d="M 137.18,85.28 A 27.202398,27.202398 0 1 1 98.71,123.75 Z"
       id="path6" />
    <path
       class="cls-7"
       d="m 137.19,19.63 a 27.21,27.21 0 0 1 19.24,46.44 L 117.94,27.59 a 27.16,27.16 0 0 1 19.25,-8"
       id="path7" />
    <path
       class="cls-8"
       d="M 137,46.56 A 27.20947,27.20947 0 1 1 98.51,8.09 Z"
       id="path8" />
  </g>
  <g
     id="g22"
     inkscape:label="type"
     transform="matrix(1.1837337,0,0,1.1837337,-77.789838,-21.838548)">
    <path
       class="cls-9"
       d="m 183,82.79 a 1.57,1.57 0 1 1 -3.14,0 V 66 a 1.57,1.57 0 0 1 0.63,-1.33 1.6,1.6 0 0 1 2.2,0.35 L 192,77.92 V 66 a 1.57,1.57 0 0 1 1.55,-1.56 1.59,1.59 0 0 1 1.59,1.56 v 16.79 a 1.6,1.6 0 0 1 -1.59,1.58 1.58,1.58 0 0 1 -1.18,-0.57 1,1 0 0 1 -0.14,-0.17 L 183,70.82 Z"
       id="path9" />
    <path
       class="cls-9"
       d="m 208.66,77.17 a 7.15,7.15 0 0 1 7,-7.21 6.9,6.9 0 0 1 6.94,6.69 v 0.14 a 0.77,0.77 0 0 1 0,0.26 1.38,1.38 0 0 1 -1.5,1.15 H 212 a 3.73,3.73 0 0 0 1,1.91 4.42,4.42 0 0 0 2.77,1.29 4.66,4.66 0 0 0 3,-0.72 1.65,1.65 0 0 1 2.17,-0.08 1.32,1.32 0 0 1 0,1.87 7.29,7.29 0 0 1 -5.16,1.9 7.15,7.15 0 0 1 -7.12,-7.2 z m 3.14,-1.42 h 8.2 a 4.71,4.71 0 0 0 -4.26,-3 4,4 0 0 0 -3.94,3 z"
       id="path10" />
    <path
       class="cls-9"
       d="m 240.49,71.54 a 1.63,1.63 0 0 1 -1.62,1.59 h -0.72 v 8.05 a 1.59,1.59 0 0 1 1.59,1.61 1.56,1.56 0 0 1 -1.59,1.58 3.21,3.21 0 0 1 -3.2,-3.19 v -8.05 h -0.83 A 1.58,1.58 0 0 1 232.53,71.54 1.56,1.56 0 0 1 234.12,70 H 235 v -4.22 a 1.59,1.59 0 0 1 1.62,-1.59 1.57,1.57 0 0 1 1.58,1.59 V 70 h 0.72 a 1.6,1.6 0 0 1 1.57,1.54 z"
       id="path11" />
    <path
       class="cls-9"
       d="m 272,72.27 -4.76,11.18 a 2.29,2.29 0 0 1 -0.11,0.23 0.59,0.59 0 0 1 -0.15,0.17 c 0,0 -0.05,0 -0.05,0 A 0.8,0.8 0 0 1 266.75,84 c 0,0 0,0 0,0.06 a 0.8,0.8 0 0 1 -0.26,0.14 c 0,0 0,0 0,0 a 0.78,0.78 0 0 0 -0.23,0.06 h -0.06 a 1.32,1.32 0 0 1 -0.29,0 1.14,1.14 0 0 1 -0.26,0 h -0.06 a 0.39,0.39 0 0 0 -0.2,-0.06 v 0 0 a 0.88,0.88 0 0 1 -0.26,-0.17 v 0 c -0.08,0 -0.11,-0.09 -0.17,-0.15 -0.06,-0.06 -0.06,0 -0.06,0 a 0.75,0.75 0 0 1 -0.14,-0.17 1.29,1.29 0 0 1 -0.12,-0.23 l -2.1,-5 -2.05,5 a 1.58,1.58 0 0 1 -0.14,0.23 v 0 l -0.17,0.17 -0.18,0.18 a 1,1 0 0 1 -0.26,0.17 h -0.05 a 0.26,0.26 0 0 0 -0.17,0.06 h -0.06 a 1.57,1.57 0 0 1 -0.29,0 1.28,1.28 0 0 1 -0.29,0 h -0.09 a 0.35,0.35 0 0 0 -0.17,-0.06 c 0,0 0,0 -0.06,0 a 0.62,0.62 0 0 1 -0.26,-0.17 c 0,0 0,0 0,0 a 1.14,1.14 0 0 0 -0.18,-0.15 h -0.06 c 0,0 -0.08,-0.11 -0.11,-0.17 -0.03,-0.06 0,0 0,0 0,0 -0.09,-0.17 -0.14,-0.23 L 252.8,72.27 a 1.49,1.49 0 0 1 0.83,-2 1.44,1.44 0 0 1 1.91,0.86 l 3.4,7.76 2,-4.82 a 1.54,1.54 0 0 1 1.41,-0.92 1.49,1.49 0 0 1 1.41,0.92 l 2.05,4.82 3.4,-7.76 a 1.44,1.44 0 0 1 1.93,-0.86 1.51,1.51 0 0 1 0.86,2 z"
       id="path12" />
    <path
       class="cls-9"
       d="m 286.82,82.27 a 7.2,7.2 0 0 1 -2,-5.07 7.44,7.44 0 0 1 2,-5 6.74,6.74 0 0 1 5,-2.19 6.38,6.38 0 0 1 4.81,2.19 7.2,7.2 0 0 1 2,5 7,7 0 0 1 -2,5.07 6.35,6.35 0 0 1 -4.81,2.19 6.7,6.7 0 0 1 -5,-2.19 z M 288,77.2 a 4.65,4.65 0 0 0 1,3 3.91,3.91 0 0 0 2.77,1.07 3.78,3.78 0 0 0 2.65,-1.07 4.4,4.4 0 0 0 1.12,-3 4.33,4.33 0 0 0 -1.12,-3 4,4 0 0 0 -2.65,-1.1 4.16,4.16 0 0 0 -2.77,1.1 4.57,4.57 0 0 0 -1,3 z"
       id="path13" />
    <path
       class="cls-9"
       d="M 319.74,71.49 A 1.54,1.54 0 0 1 318.21,73 2.79,2.79 0 0 0 316.48,73.54 4.38,4.38 0 0 0 315.16,75 9.19,9.19 0 0 0 314,77.37 v 5.48 a 1.57,1.57 0 0 1 -1.58,1.52 1.53,1.53 0 0 1 -1.53,-1.52 V 71.49 a 1.51,1.51 0 0 1 1.53,-1.5 1.54,1.54 0 0 1 1.58,1.5 v 0.2 a 4.73,4.73 0 0 1 0.61,-0.58 6.33,6.33 0 0 1 3.6,-1.11 1.49,1.49 0 0 1 1.53,1.49 z"
       id="path14" />
    <path
       class="cls-9"
       d="m 331.45,82.79 v -17 a 1.58,1.58 0 0 1 1.55,-1.6 1.61,1.61 0 0 1 1.62,1.59 v 10 l 5.91,-5.91 a 1.62,1.62 0 0 1 2.24,0 1.56,1.56 0 0 1 0,2.25 l -4.32,4.33 4.44,5.33 a 1.6,1.6 0 0 1 -0.23,2.25 1.51,1.51 0 0 1 -1,0.37 1.54,1.54 0 0 1 -1.21,-0.57 l -4.24,-5.13 -1.58,1.58 v 2.54 a 1.61,1.61 0 0 1 -1.63,1.55 1.58,1.58 0 0 1 -1.55,-1.58 z"
       id="path15" />
    <path
       class="cls-9"
       d="m 371.52,74 a 10.58,10.58 0 0 1 10.58,-10.38 10.74,10.74 0 0 1 6.66,2.25 1.65,1.65 0 0 1 -2,2.62 7.17,7.17 0 0 0 -4.64,-1.59 7.62,7.62 0 0 0 -5.21,2.1 7.12,7.12 0 0 0 -2.11,5 7,7 0 0 0 2.11,5 7.62,7.62 0 0 0 5.19,2.08 7.23,7.23 0 0 0 4.64,-1.59 1.76,1.76 0 0 1 2.31,0.32 1.71,1.71 0 0 1 -0.29,2.31 10.8,10.8 0 0 1 -6.66,2.24 A 10.54,10.54 0 0 1 371.52,74 Z"
       id="path16" />
    <path
       class="cls-9"
       d="m 414.44,77.2 v 5.65 a 1.53,1.53 0 0 1 -1.52,1.52 1.56,1.56 0 0 1 -1.5,-1.24 6.54,6.54 0 0 1 -3.84,1.24 6.68,6.68 0 0 1 -4.9,-2.1 7.37,7.37 0 0 1 -2,-5.07 7.29,7.29 0 0 1 2,-5.08 6.66,6.66 0 0 1 4.9,-2.16 6.57,6.57 0 0 1 3.84,1.27 1.57,1.57 0 0 1 1.5,-1.27 1.54,1.54 0 0 1 1.52,1.56 z m -3.05,0 a 4.21,4.21 0 0 0 -1.13,-3 3.55,3.55 0 0 0 -2.68,-1.18 3.49,3.49 0 0 0 -2.68,1.18 4.23,4.23 0 0 0 -1.09,3 4.29,4.29 0 0 0 1.09,3 3.62,3.62 0 0 0 2.68,1.13 3.69,3.69 0 0 0 2.68,-1.13 4.27,4.27 0 0 0 1.13,-3 z"
       id="path17" />
    <path
       class="cls-9"
       d="m 439.76,76 v 6.89 a 1.52,1.52 0 0 1 -1.5,1.52 1.55,1.55 0 0 1 -1.53,-1.52 V 76 a 3,3 0 0 0 -3,-2.91 2.87,2.87 0 0 0 -2.88,2.91 v 6.89 a 0.53,0.53 0 0 1 -0.06,0.28 1.57,1.57 0 0 1 -1.53,1.24 1.51,1.51 0 0 1 -1.52,-1.52 v -11.4 a 1.52,1.52 0 0 1 1.52,-1.49 1.58,1.58 0 0 1 1.42,0.89 5.8,5.8 0 0 1 3.05,-0.89 6,6 0 0 1 6.03,6 z"
       id="path18" />
    <path
       class="cls-9"
       d="m 464.15,72.27 -4.73,11.18 a 0.49,0.49 0 0 1 -0.12,0.2 1.63,1.63 0 0 1 -0.17,0.2 1,1 0 0 1 -0.17,0.18 0.72,0.72 0 0 1 -0.2,0.14 h -0.06 v 0 a 0.56,0.56 0 0 0 -0.23,0.06 h -0.06 a 1.47,1.47 0 0 1 -0.28,0 1.38,1.38 0 0 1 -0.26,0 h -0.06 a 0.71,0.71 0 0 0 -0.23,-0.06 v 0 h -0.06 c -0.09,0 -0.14,-0.09 -0.26,-0.14 a 0.74,0.74 0 0 1 -0.17,-0.18 c 0,0 0,0 -0.06,0 a 1.86,1.86 0 0 0 -0.14,-0.2 c 0,0 0,0 0,0 0,0 -0.09,-0.11 -0.12,-0.2 L 452,72.27 a 1.5,1.5 0 1 1 2.77,-1.13 L 458,79 l 3.34,-7.84 a 1.44,1.44 0 0 1 1.93,-0.83 1.46,1.46 0 0 1 0.88,1.94 z"
       id="path19" />
    <path
       class="cls-9"
       d="m 488.94,77.2 v 5.65 a 1.53,1.53 0 0 1 -1.53,1.52 1.57,1.57 0 0 1 -1.5,-1.24 6.51,6.51 0 0 1 -3.83,1.24 6.68,6.68 0 0 1 -4.9,-2.1 7.37,7.37 0 0 1 -2,-5.07 7.29,7.29 0 0 1 2,-5.08 6.66,6.66 0 0 1 4.9,-2.16 6.54,6.54 0 0 1 3.83,1.27 1.57,1.57 0 0 1 1.5,-1.27 1.54,1.54 0 0 1 1.53,1.56 z m -3.06,0 a 4.25,4.25 0 0 0 -1.12,-3 3.55,3.55 0 0 0 -2.68,-1.18 3.46,3.46 0 0 0 -2.68,1.18 4.23,4.23 0 0 0 -1.1,3 4.3,4.3 0 0 0 1.1,3 3.59,3.59 0 0 0 2.68,1.13 3.69,3.69 0 0 0 2.68,-1.13 4.31,4.31 0 0 0 1.12,-3 z"
       id="path20" />
    <path
       class="cls-9"
       d="M 501.83,80.25 A 1.5,1.5 0 0 1 504,80 a 5.26,5.26 0 0 0 3.17,1.27 3.82,3.82 0 0 0 2,-0.55 1.18,1.18 0 0 0 0.52,-0.86 0.42,0.42 0 0 0 -0.09,-0.29 c 0,-0.09 -0.14,-0.2 -0.37,-0.35 a 6.69,6.69 0 0 0 -2.31,-0.8 v 0 a 11.86,11.86 0 0 1 -2.51,-0.75 4.84,4.84 0 0 1 -2,-1.68 3.43,3.43 0 0 1 -0.49,-1.81 4,4 0 0 1 1.7,-3.17 6.14,6.14 0 0 1 3.48,-1.01 7.48,7.48 0 0 1 4.33,1.58 1.61,1.61 0 0 1 0.46,2.14 1.53,1.53 0 0 1 -2.14,0.4 5,5 0 0 0 -2.65,-1.12 3,3 0 0 0 -1.73,0.51 0.89,0.89 0 0 0 -0.46,0.67 0.31,0.31 0 0 0 0.06,0.23 0.76,0.76 0 0 0 0.32,0.29 5.75,5.75 0 0 0 2.1,0.69 v 0 0 a 10.45,10.45 0 0 1 2.68,0.83 4.55,4.55 0 0 1 2,1.7 3.8,3.8 0 0 1 0.54,1.91 4.14,4.14 0 0 1 -1.81,3.34 6.58,6.58 0 0 1 -3.75,1.15 8.32,8.32 0 0 1 -5.13,-2 1.54,1.54 0 0 1 -0.09,-2.07 z"
       id="path21" />
  </g>
  <rect
     id="Frame"
     class="cls-10"
     width="545.52"
     height="131.61" />
</svg>
