<svg xmlns="http://www.w3.org/2000/svg"
    xmlns:xlink="http://www.w3.org/1999/xlink" width="319.29" height="254.8" viewBox="0 0 320 192">
    <g id="Layer_2" data-name="Layer 2">
        <g id="Create_Button" data-name="Create Button">
            <g style="clip-path:url(#clip-path)">
                <g id="undraw_press_play_bx2d">
                    <path d="M51.91,2.5C61.74-6.27,77.19-8,91.25-7.36c44.15,2.2,84,23.52,118.49,47.63C222.22,49,234.51,58.4,242.61,70.42c16.49,24.47,11.6,58.37-11.33,78.53-7.8,6.86-17.26,12.12-27,16.78-17.25,8.29-35.89,14.94-55.49,16.83-14,1.35-28.12.26-42-1.63C68,175.67,29.88,164-2,144.11c-14-8.73-27.21-19.59-33-33.72s-2.07-32,12.24-40.4c5.92-3.46,13-5,19.91-6.49,10.19-2.16,20.55-4.29,29.74-8.68,9.5-4.53,20.75-13.3,18.86-23.33C43.69,20.72,42.09,11.25,51.91,2.5Z" transform="translate(50.76 7.49)" style="fill:#6c63ff;opacity:0.10000000149011612;isolation:isolate"/>
                    <circle cx="55.64" cy="41.35" r="10.07" style="fill:#6c63ff;opacity:0.10000000149011612;isolation:isolate"/>
                    <circle cx="34.55" cy="17.38" r="6.23" style="fill:#6c63ff;opacity:0.10000000149011612;isolation:isolate"/>
                    <circle cx="295.82" cy="36.56" r="3.84" style="fill:#6c63ff;opacity:0.10000000149011612;isolation:isolate"/>
                    <ellipse cx="220.5" cy="252.12" rx="26.92" ry="2.68" style="fill:#6c63ff;opacity:0.10000000149011612;isolation:isolate"/>
                    <polygon points="68.4 155.75 68.28 162.12 67.33 213.81 59.23 232.77 31.32 233.09 31.32 158.68 60.45 156.38 68.4 155.75" style="fill:#5f5d7e"/>
                    <polygon points="68.4 155.75 68.28 162.12 67.33 213.81 59.23 232.77 31.32 233.09 31.32 158.68 60.45 156.38 68.4 155.75" style="opacity:0.10000000149011612;isolation:isolate"/>
                    <polygon points="68.4 155.75 68.28 162.12 67.33 213.81 59.23 232.77 61.37 162.24 61.36 162.2 60.45 156.38 68.4 155.75" style="fill:#5f5d7e"/>
                    <polygon points="60.45 156.38 68.4 155.75 68.28 162.12 61.36 162.2 31.32 162.53 31.32 158.68 60.45 156.38" style="opacity:0.10000000149011612;isolation:isolate"/>
                    <polygon points="319.29 158.68 319.29 232.66 312.79 232.66 286.79 213.7 286.79 156.59 310.02 154.41 311.45 155.07 312.79 155.69 319.29 158.68" style="fill:#5f5d7e"/>
                    <rect x="312.79" y="155.07" width="6.5" height="77.59" style="opacity:0.10000000149011612;isolation:isolate"/>
                    <polygon points="319.29 155.07 319.29 159.32 312.79 159.4 286.79 159.68 286.79 156.59 310.02 154.41 311.45 155.07 312.79 155.69 312.79 155.07 319.29 155.07" style="opacity:0.10000000149011612;isolation:isolate"/>
                    <polygon points="319.29 152.66 319.29 158.68 0 162.24 0 154.57 30.04 148.5 291.48 146.58 319.29 152.66" style="fill:#5f5d7e"/>
                    <polygon points="319.29 152.66 319.29 158.68 0 162.24 0 154.57 319.29 152.66" style="opacity:0.10000000149011612;isolation:isolate"/>
                    <rect x="116.82" y="62.31" width="111.84" height="86.83" rx="7.29" style="fill:#474157"/>
                    <rect x="125.82" y="70.14" width="94" height="70.83" style="fill:#ededf4"/>
                    <circle cx="122.15" cy="105.56" r="1.54" style="fill:#e6e8ec"/>
                    <circle cx="223.98" cy="105.73" r="2.54" style="fill:#e6e8ec"/>
                    <path d="M132.2,98.35l-12-7.31a1.64,1.64,0,0,0-2.44,1.43v14.21a1.64,1.64,0,0,0,1.65,1.64,1.58,1.58,0,0,0,.79-.21l12-6.89a1.66,1.66,0,0,0,.63-2.25A1.63,1.63,0,0,0,132.2,98.35Zm9,1.23a16.94,16.94,0,1,0-16.94,16.94h0A17,17,0,0,0,141.24,99.58Zm-30.6,0a13.66,13.66,0,1,1,13.66,13.66h0a13.65,13.65,0,0,1-13.66-13.66Z" transform="translate(50.76 7.49)" style="fill:#6c63ff"/>
                    <path d="M206.17,155.23a3.67,3.67,0,0,0-.36-1.12c.24-.83.4-1.34.4-1.34a1.81,1.81,0,0,0,0-.32,4.9,4.9,0,0,0-5-4.11c-1.92,0-5.55.16-9.59.61.23-1.61.51-3.54.8-5.53l.52.06a2.48,2.48,0,0,1,.38,0h.17a1.75,1.75,0,0,0,1.17-.36.69.69,0,0,0,0-1,.66.66,0,0,0-.22-.15,2.87,2.87,0,0,0,2.5-1,2.25,2.25,0,0,0,0-2.6c-.68-1-2.11-1.6-2.18-2.73a3.39,3.39,0,0,1,.72-1.78,7.44,7.44,0,0,0-1.17-8.93,16.83,16.83,0,0,0-1.42-1.26,23.47,23.47,0,0,0-1.66-5c-.28-.09-.76-.7-1.22-1.22a6.47,6.47,0,0,0,0-1.32c-.34-2.24-2.56-3.83-3.78-5.81a10.05,10.05,0,0,1-1.13-6.66A46.34,46.34,0,0,1,186.83,97a8.53,8.53,0,0,0,.34-5,9.09,9.09,0,0,0-2.06-3.1,23.5,23.5,0,0,0-7.33-5.76,14.65,14.65,0,0,0-6.48-1.38h0l-.35,0h-.25l-.25,0-.26,0h0c-.27,0-.54.08-.81.14a27.58,27.58,0,0,0-5.93-.67h-.26a3,3,0,0,0-1.69.4c-.71.5-.8,1.38-1,2.16a5.92,5.92,0,0,1-2.3,3.19c-.76.55-1.66,1-2.39,1.54a2.44,2.44,0,0,0-1.1,2.29,2.49,2.49,0,0,0,1.6,1.56l-.28.35.46.16c1,.28,2,.32,3,.58a7.3,7.3,0,0,1,.79.26,11.2,11.2,0,0,0-1.32,5.28,11.38,11.38,0,0,0,5.95,10v.32c.1,3.33-.15,7.39-1.86,8.08s-3.34,1.46-4.34,2l-.32.17c-.27-.13-.53-.25-.79-.39,0,0-1.36-.16-1.12.88,0,0-4.11-.64-6.36,1.11a57.65,57.65,0,0,0-6.68,6.38c-.73.95-6.34,3-6.34,3a7.19,7.19,0,0,0,1-5.49s-.85-3.65-.44-5.12,1.44-6.9,1.44-6.9.15-5.73-3-8.36-5.3-4.79-4.09-2.24a31.76,31.76,0,0,0,1.77,3.43s-7.49,1.77-4.83,4.55,3.38,2.77,3.38,2.77-.89,6.85-1.05,8.13-1.6,11-1.6,11-.08,4.62.73,5.34a3.62,3.62,0,0,0,3.86,2.87s6.35-.16,8.12-.87,7.88-4.54,8.53-4.3a.25.25,0,0,1,.12.08.47.47,0,0,1,.1.1c-.64,1.41-2.15,6.22-1.51,8.58,0,0-.56,6.69,2.82,8.84,0,0,4.9,8.29,3.05,12.74-.14.36-.27.7-.4,1-2.81-2.33-7.09-4.47-13.64-5.66-.67-.12-1.33-.27-2-.43-1.86-.45-7-.86-9.41,7.23a35.74,35.74,0,0,1-2.16,5.47,18.16,18.16,0,0,0-2,7.48c-.05,3.87,1.95,7.7,9.2,9.1a27.14,27.14,0,0,0,1.39,8.77c2,5,5.23,13.14,5.23,13.14s3.86,8.29,4.1,11.63a52.78,52.78,0,0,1,.23,7c0,.12,0,.24,0,.35a9,9,0,0,1-1.08,1c-.57.32-2.42,2.32-2.42,2.79a10.26,10.26,0,0,0,.12,1.36,3.38,3.38,0,0,0-1.35,2.43c0,4.32,12.26,7.83,27.39,7.83S196,242.77,196,238.46c0-3.94-10.23-7.2-23.52-7.74a24.83,24.83,0,0,0,6.25-3.19,1.49,1.49,0,0,0,.48-.66l-2.57-6-.5.13-.18-.26c-1.14-1.75-3.34-5.22-3.34-6.16,0-.35-.58-2.58-1.43-5.63v-9.79c8.39,1.27,19.21-.46,19.21-.46l0,0h.21v-.11c1.45-.81,8.73-5.07,10.89-10.72.63-1.65-.16-4-1.74-6.54,1.1-2.74,3.83-9.83,3.56-12.66,0-.15,0-.32,0-.49a6.33,6.33,0,0,0,0-.87c.32-4.15,2.88-11.74,2.88-11.74Zm-54.33-18.46c.58,1,1.2,2.33,1.45,2.86h0s-.85-1.56-1.44-2.86Zm.61,89.52-.07,0V226a18.93,18.93,0,0,1,.07-2.5,3.07,3.07,0,0,0-.28-1.3,31.08,31.08,0,0,1-2-7.71,39.4,39.4,0,0,1-.42-6.6,116.46,116.46,0,0,0,.15-14.59l4.94,1.11,5.76,11.73s3.7,5.72,4.85,10.24v4.53a11.25,11.25,0,0,1-1.73,3.75c-.77,1.05-1.51,2.1-2.2,3.2-.21.34-.45.68-.68,1-.08,0-3.86.22-4.5.93a4.24,4.24,0,0,0-1.2,1.82l-.17,0a38.26,38.26,0,0,0-2.55-5.36Z" transform="translate(50.76 7.49)" style="fill:url(#linear-gradient)"/>
                    <path d="M176.78,222.19l-1.27,4.15-5.44,4.72-8,2.29s-3.75-2-2.48-2.45a3.13,3.13,0,0,0,1.21-1.05c-.45,1.63,3.11-.47,3.11-.47s9.19-6.55,10.15-7.27a7.13,7.13,0,0,1,2-.94C176.51,221.79,176.78,222.19,176.78,222.19Z" transform="translate(50.76 7.49)" style="opacity:0.10000000149011612;isolation:isolate"/>
                    <path d="M176.78,222.19l-1.27,4.15-5.44,4.72-8,2.29s-3.75-2-2.48-2.45a3.13,3.13,0,0,0,1.21-1.05,16.27,16.27,0,0,0,1.07-1.54c.68-1.1,1.42-2.16,2.18-3.2a11.47,11.47,0,0,0,2-5.31c.56-4.39-5.12-13.26-5.12-13.26l-10.3-21.17L165,187.12s7.75,26.61,7.75,27.89c0,1,2.18,4.43,3.32,6.17Z" transform="translate(50.76 7.49)" style="fill:#fdc2cc"/>
                    <ellipse cx="219.56" cy="246.43" rx="27.21" ry="7.85" style="fill:#5f5d7e"/>
                    <path d="M179.34,227.3a1.51,1.51,0,0,1-.48.66c-2,1.82-9.36,4.51-13.92,6a31.12,31.12,0,0,1-3.66,1,10.83,10.83,0,0,1-5-1.62c-1.6-1-.16-2.37.48-3.09s4.48-.94,4.48-.94c-1.84,3.06,2.71.38,2.71.38s9.19-6.55,10.15-7.27a8.83,8.83,0,0,1,2.72-1.12Z" transform="translate(50.76 7.49)" style="fill:#6c63ff"/>
                    <path d="M179.34,227.3a1.51,1.51,0,0,1-.48.66c-2,1.82-9.36,4.51-13.92,6a31.12,31.12,0,0,1-3.66,1,10.83,10.83,0,0,1-5-1.62c-1.6-1-.16-2.37.48-3.09s4.48-.94,4.48-.94c-1.84,3.06,2.71.38,2.71.38s9.19-6.55,10.15-7.27a8.83,8.83,0,0,1,2.72-1.12Z" transform="translate(50.76 7.49)" style="opacity:0.30000001192092896;isolation:isolate"/>
                    <path d="M178.86,228c-2,1.81-9.36,4.51-13.92,6C169.07,230.44,176,228.61,178.86,228Z" transform="translate(50.76 7.49)" style="opacity:0.10000000149011612;isolation:isolate"/>
                    <ellipse cx="219.56" cy="243.9" rx="5.44" ry="1.57" style="opacity:0.10000000149011612;isolation:isolate"/>
                    <rect x="216.53" y="202.51" width="5.59" height="41.39" style="fill:#5f5d7e"/>
                    <path d="M171.37,197.08v4.79a39,39,0,0,1-5.59-2.94V195H167Z" transform="translate(50.76 7.49)" style="opacity:0.10000000149011612;isolation:isolate"/>
                    <path d="M158.2,177s18.46-4.75,23.06-8.31,22.64,13.19,20.26,19.5-11.07,10.89-11.07,10.89-24,3.91-28.09-4.24S158.2,177,158.2,177Z" transform="translate(50.76 7.49)" style="fill:#474157"/>
                    <path d="M158.2,177s18.46-4.75,23.06-8.31,22.64,13.19,20.26,19.5-11.07,10.89-11.07,10.89-24,3.91-28.09-4.24S158.2,177,158.2,177Z" transform="translate(50.76 7.49)" style="opacity:0.10000000149011612;isolation:isolate"/>
                    <path d="M156.6,175.09s18.46-4.76,23.06-8.31S202.3,180,199.92,186.27s-11.06,10.89-11.06,10.89-24,3.91-28.1-4.24S156.6,175.09,156.6,175.09Z" transform="translate(50.76 7.49)" style="fill:#474157"/>
                    <path d="M139.47,131.51l-2-.73a7.25,7.25,0,0,0,1-5.51s-.84-3.67-.44-5.15,1.44-6.92,1.44-6.92.15-5.75-3-8.39-5.27-4.79-4.07-2.24A33.74,33.74,0,0,0,134.2,106s-7.44,1.78-4.8,4.57,3.36,2.78,3.36,2.78-.88,6.87-1,8.15-1.6,11-1.6,11-.08,4.63.72,5.35a3.62,3.62,0,0,0,3.84,2.88C135.24,140.76,142,133.26,139.47,131.51Z" transform="translate(50.76 7.49)" style="fill:#fdc2cc"/>
                    <path d="M187.73,116.8v4.48l-4.63,1.51-7.9,5.81-2.09,1.54-9.35-3.75-5.91-6.24.78-.41.32-.17c1-.5,2.58-1.28,4.32-2s1.95-4.76,1.85-8.11v-.32c-.08-2.35-.32-4.27-.32-4.27s1-.19,2.39-.4c3.94-.58,11.28-1.37,10.63,1a5.51,5.51,0,0,0,0,2.49l.06.27a21.28,21.28,0,0,0,2.73,6l6.39,2.3.18.06Z" transform="translate(50.76 7.49)" style="fill:#fdc2cc"/>
                    <path d="M187.73,118.16V116.8a4.84,4.84,0,0,1,1.52,0c.56.16,1.62,1.84,2.1,2s3.41,11.11,3.09,12.07-3.34,22.6-3.34,22.6L185,160.18l-1.2-18.45,3.92-10.95Z" transform="translate(50.76 7.49)" style="fill:#fdc2cc"/>
                    <path d="M156.17,168.42s-5.57,1.2-4.86,3,3.82,1.83,3.82,1.83Z" transform="translate(50.76 7.49)" style="fill:#fdc2cc"/>
                    <path d="M163.92,132.93l-4.24,9.12-5,3.68-.88-5.68s-1.7-3.76-2.43-4.39a.38.38,0,0,0-.13-.09c-.63-.24-6.71,3.6-8.46,4.32s-8.07.88-8.07.88l2.79-10s5.59-2.08,6.31-3a58.3,58.3,0,0,1,6.64-6.39c2.23-1.76,6.31-1.12,6.31-1.12l.07,0,1,.45,3,7.43Z" transform="translate(50.76 7.49)" style="fill:#fdc2cc"/>
                    <path d="M152.81,224a21,21,0,0,0-.06,2.51c0,.89.06,1.65.06,1.65L151,231.94s-6.32,2.08-5.28,1.2a3.45,3.45,0,0,0,.64-2.14,53.13,53.13,0,0,0-.23-7.05c-.24-3.35-4.07-11.66-4.07-11.66s-3.2-8.15-5.19-13.19S135.57,185,135.57,185s.32-6.87,1.75-9,7-2.8,7-2.8l2.62,8.71s2.16,8.15,3,9.35.56,15.5.24,17a40.45,40.45,0,0,0,.41,6.63,31.21,31.21,0,0,0,1.95,7.73A3,3,0,0,1,152.81,224Z" transform="translate(50.76 7.49)" style="fill:#fdc2cc"/>
                    <path d="M152.81,228.11,151,231.94s-6.32,2.08-5.28,1.2a3.45,3.45,0,0,0,.64-2.14c.23-.22.47-.47.72-.73a16.28,16.28,0,0,1,5.7-3.81h0C152.77,227.35,152.81,228.11,152.81,228.11Z" transform="translate(50.76 7.49)" style="opacity:0.10000000149011612;isolation:isolate"/>
                    <path d="M155.7,233.82v0c-.32,1.52-5.6,3.6-5.6,3.6s-3.35.55-5.27,1a1.38,1.38,0,0,1-.45,0c-1.48-.12-1.55-3-1.55-3.4a9.07,9.07,0,0,1,2.4-2.8,17.82,17.82,0,0,0,1.78-1.7,16.37,16.37,0,0,1,5.82-3.89h0S156,232.24,155.7,233.82Z" transform="translate(50.76 7.49)" style="fill:#6c63ff"/>
                    <path d="M155.7,233.82v0c-.32,1.52-5.6,3.6-5.6,3.6s-3.35.55-5.27,1a1.38,1.38,0,0,1-.45,0c-1.48-.12-1.55-3-1.55-3.4a9.07,9.07,0,0,1,2.4-2.8,17.29,17.29,0,0,0,1.8-1.73,16.14,16.14,0,0,1,5.71-3.83l.09,0S156,232.24,155.7,233.82Z" transform="translate(50.76 7.49)" style="opacity:0.30000001192092896;isolation:isolate"/>
                    <path d="M155.7,233.82v0c-.32,1.52-5.6,3.6-5.6,3.6s-3.35.55-5.27,1a1.38,1.38,0,0,1-.45,0c1.74-1.2,6-4.06,6.52-4.12S154.27,233.55,155.7,233.82Z" transform="translate(50.76 7.49)" style="opacity:0.10000000149011612;isolation:isolate"/>
                    <path d="M177.9,108.3c-2,1.63-3.79,1.39-6.55,1.39-2,0-4.59.7-6.22-.2-.07-2.49-.32-4.59-.32-4.59s13.9-2.64,13,.64A5.73,5.73,0,0,0,177.9,108.3Z" transform="translate(50.76 7.49)" style="opacity:0.10000000149011612;isolation:isolate"/>
                    <path d="M182.06,99.16a11.42,11.42,0,0,1-11.43,11.42h0a8.33,8.33,0,0,1-.87,0h0a11.42,11.42,0,1,1,12.3-11.39Z" transform="translate(50.76 7.49)" style="fill:#fdc2cc"/>
                    <path d="M160.88,128.15l3,4.79-4.24,9.13-5,3.67-.88-5.69s-1.7-3.76-2.43-4.39c.21-.52.35-.75.35-.57,0,.8,2,4.4,2,4.4,6.07-2.08,4.19-10.15,4.19-10.15s-.76-7.19-1-9.08l1,.45Z" transform="translate(50.76 7.49)" style="opacity:0.10000000149011612;isolation:isolate"/>
                    <path d="M187.73,116.8v4.48l-4.63,1.51-7.9,5.81-2.09,1.54-9.35-3.75-5.91-6.24.78-.41.32-.17a39.13,39.13,0,0,0,16.15,2.9c12-1.92,12.39-4.83,12.09-5.86Z" transform="translate(50.76 7.49)" style="opacity:0.10000000149011612;isolation:isolate"/>
                    <path d="M191.17,189.27a89.59,89.59,0,0,1-9.27,3.91c-5.52,2-17.66-.64-19.18-1s-13.18-5-17.66-6.79-5.59-.32-6.63-.48-1.76-2.15-1.92-2.71,2.88-5.44,4.56-7.91,6.71-2,7.43-2.16,5.75,0,5.75,0-.32-1.6,1.52-6.07-3-12.79-3-12.79c-3.35-2.16-2.79-8.87-2.79-8.87-.8-3,1.75-9.74,1.75-9s2,4.4,2,4.4c6.07-2.08,4.19-10.15,4.19-10.15s-.88-8.39-1.12-9.43,1.12-.88,1.12-.88q.39.21.78.39a35.41,35.41,0,0,0,12.08,3,35.87,35.87,0,0,0,4.4.1c14.59-2.36,12-6.11,11.91-6.25l.71.26c5.27,3.83,3.68,16.54,3.68,16.54l-2,9.48L188,149.88s5.2,31.48,5.68,33.08S191.17,189.27,191.17,189.27Z" transform="translate(50.76 7.49)" style="fill:#6c63ff"/>
                    <path d="M152.25,174.89c-.32.24-3.91,7.67-1.27,9.74S152.25,174.89,152.25,174.89Z" transform="translate(50.76 7.49)" style="opacity:0.10000000149011612;isolation:isolate"/>
                    <path d="M154.81,175.93c.08.24,7.51,12.07,11.59,13Z" transform="translate(50.76 7.49)" style="opacity:0.10000000149011612;isolation:isolate"/>
                    <path d="M172.71,82.35l-1.19.26a6.14,6.14,0,0,1,1-.3Z" transform="translate(50.76 7.49)" style="opacity:0.10000000149011612;isolation:isolate"/>
                    <path d="M190.62,133.34l-2.24,9.47a11.6,11.6,0,0,1-3.11-2.08,9.45,9.45,0,0,0-2.27-1.9,9.92,9.92,0,0,0-3.94-.54,19.22,19.22,0,0,1-4.93-.84,3.5,3.5,0,0,1-1.27-.62,3.08,3.08,0,0,1-.64-2.7,40.82,40.82,0,0,0,0-5.53c0-.35,0-.69-.07-1-.13-1.54-.54-3.33-2.12-4-.81-.32-1.78-.29-2.56-.68a2.14,2.14,0,0,1-.32-.2c-1.15-.8-1.25-2.42-1.21-3.78.07-1.86.13-3.73.2-5.6a16.94,16.94,0,0,0-.07-2.76h0a6.05,6.05,0,0,0-.49-1.77c-.7-1.48-2.14-2.72-2.4-4.28l0-.23c-.13-1.4.75-2.7,1.06-4.08.62-2.77-1.47-5.8-4.53-6.6-1-.25-2-.3-2.94-.58a4.72,4.72,0,0,1-.45-.16,13.41,13.41,0,0,1,10.78-5.12c7.14,0,12.92,5.12,12.92,11.43a11,11,0,0,1-4.77,8.87,2.68,2.68,0,0,0,.07.27,20,20,0,0,0,3.08,6l7.23,2.3.81.26C192.43,120.64,190.62,133.34,190.62,133.34Z" transform="translate(50.76 7.49)" style="opacity:0.10000000149011612;isolation:isolate"/>
                    <path d="M194.54,142.52a1.38,1.38,0,0,1-.2,0A.34.34,0,0,1,194.54,142.52Z" transform="translate(50.76 7.49)" style="opacity:0.10000000149011612;isolation:isolate"/>
                    <path d="M169.83,82a27.2,27.2,0,0,0-6.1-.72,3.34,3.34,0,0,0-1.91.41c-.71.49-.8,1.39-1,2.16a6,6,0,0,1-2.29,3.2c-.75.55-1.64,1-2.37,1.54a2.47,2.47,0,0,0-1.1,2.29,2.85,2.85,0,0,0,2.1,1.78c1,.27,2,.32,2.94.58,3.07.8,5.15,3.84,4.53,6.6-.32,1.38-1.19,2.68-1.06,4.08.16,1.67,1.7,3,2.43,4.51a9.79,9.79,0,0,1,.56,4.53l-.19,5.6c-.05,1.48.07,3.26,1.53,4,.78.38,1.75.34,2.56.68,1.58.66,2,2.45,2.12,4a42.25,42.25,0,0,1,0,6.56,3,3,0,0,0,.64,2.7,3.21,3.21,0,0,0,1.27.62,19.23,19.23,0,0,0,4.93.85,9.89,9.89,0,0,1,3.94.54,9.22,9.22,0,0,1,2.27,1.9,12.53,12.53,0,0,0,7.41,3.24,2.23,2.23,0,0,0,1.68-.34c.41-.38.17-1.2-.42-1.15a2.87,2.87,0,0,0,2.69-1,2.27,2.27,0,0,0,0-2.61c-.67-1-2.09-1.6-2.17-2.74a3.43,3.43,0,0,1,.72-1.79,7.5,7.5,0,0,0-1.16-8.94c-1.5-1.55-3.75-2.73-4.27-4.72-.35-1.33.18-2.72,0-4.08-.31-2.23-2.53-3.83-3.75-5.83a10.1,10.1,0,0,1-1.12-6.67A47.2,47.2,0,0,1,187,97.08a8.6,8.6,0,0,0,.33-5,9.21,9.21,0,0,0-2-3.12A23.09,23.09,0,0,0,178,83.18a13.31,13.31,0,0,0-9.5-.88" transform="translate(50.76 7.49)" style="fill:#474157"/>
                    <path d="M169.83,82a27.2,27.2,0,0,0-6.1-.72,3.34,3.34,0,0,0-1.91.41c-.71.49-.8,1.39-1,2.16a6,6,0,0,1-2.29,3.2c-.75.55-1.64,1-2.37,1.54a2.47,2.47,0,0,0-1.1,2.29,2.85,2.85,0,0,0,2.1,1.78c1,.27,2,.32,2.94.58,3.07.8,5.15,3.84,4.53,6.6-.32,1.38-1.19,2.68-1.06,4.08.16,1.67,1.7,3,2.43,4.51a9.79,9.79,0,0,1,.56,4.53l-.19,5.6c-.05,1.48.07,3.26,1.53,4,.78.38,1.75.34,2.56.68,1.58.66,2,2.45,2.12,4a42.25,42.25,0,0,1,0,6.56,3,3,0,0,0,.64,2.7,3.21,3.21,0,0,0,1.27.62,19.23,19.23,0,0,0,4.93.85,9.89,9.89,0,0,1,3.94.54,9.22,9.22,0,0,1,2.27,1.9,12.53,12.53,0,0,0,7.41,3.24,2.23,2.23,0,0,0,1.68-.34c.41-.38.17-1.2-.42-1.15a2.87,2.87,0,0,0,2.69-1,2.27,2.27,0,0,0,0-2.61c-.67-1-2.09-1.6-2.17-2.74a3.43,3.43,0,0,1,.72-1.79,7.5,7.5,0,0,0-1.16-8.94c-1.5-1.55-3.75-2.73-4.27-4.72-.35-1.33.18-2.72,0-4.08-.31-2.23-2.53-3.83-3.75-5.83a10.1,10.1,0,0,1-1.12-6.67A47.2,47.2,0,0,1,187,97.08a8.6,8.6,0,0,0,.33-5,9.21,9.21,0,0,0-2-3.12A23.09,23.09,0,0,0,178,83.18a13.31,13.31,0,0,0-9.5-.88" transform="translate(50.76 7.49)" style="opacity:0.10000000149011612;isolation:isolate"/>
                    <path d="M152.73,153.24s2.72,1,5.6-1.84S152.73,153.24,152.73,153.24Z" transform="translate(50.76 7.49)" style="opacity:0.10000000149011612;isolation:isolate"/>
                    <g style="opacity:0.10000000149011612">
                        <path d="M171,82a10.93,10.93,0,0,1,1.6-.2,11.22,11.22,0,0,0-2.24.07Z" transform="translate(50.76 7.49)"/>
                        <path d="M187.06,140.42a9.41,9.41,0,0,0-2.27-1.9,9.92,9.92,0,0,0-3.94-.54,18.74,18.74,0,0,1-4.93-.85,3.25,3.25,0,0,1-1.28-.62,3.1,3.1,0,0,1-.64-2.7,39.91,39.91,0,0,0,0-6.56c-.13-1.54-.54-3.33-2.12-4-.81-.34-1.78-.3-2.56-.68-1.46-.72-1.6-2.5-1.54-4,.07-1.87.14-3.73.2-5.6a9.66,9.66,0,0,0-.57-4.53c-.72-1.55-2.27-2.83-2.42-4.51-.13-1.4.75-2.7,1.06-4.08.62-2.77-1.46-5.8-4.53-6.6-1-.25-2-.3-2.94-.58a2.78,2.78,0,0,1-2.08-1.76,2.43,2.43,0,0,1,1.09-2.3c.72-.58,1.62-1,2.38-1.54a6,6,0,0,0,2.28-3.19,3.55,3.55,0,0,1,1-2.17,2.6,2.6,0,0,1,1.31-.38l-.85,0a3.43,3.43,0,0,0-1.92.4c-.71.5-.8,1.39-1,2.17a6,6,0,0,1-2.28,3.19c-.76.55-1.65,1-2.38,1.54a2.47,2.47,0,0,0-1.09,2.3,2.82,2.82,0,0,0,2.08,1.76c.95.28,2,.32,2.94.58,3.07.8,5.15,3.84,4.53,6.6-.32,1.38-1.19,2.68-1.06,4.08.16,1.68,1.7,3,2.43,4.51a9.66,9.66,0,0,1,.56,4.53c-.06,1.87-.13,3.73-.19,5.6-.05,1.48.07,3.26,1.53,4,.78.38,1.75.34,2.56.68,1.58.66,2,2.45,2.12,4a42.25,42.25,0,0,1,0,6.56,3,3,0,0,0,.64,2.7,3.21,3.21,0,0,0,1.27.62,18.81,18.81,0,0,0,4.93.85,9.92,9.92,0,0,1,3.94.54,9.46,9.46,0,0,1,2.28,1.9,12.48,12.48,0,0,0,7.4,3.24,3.2,3.2,0,0,0,1.07,0A12.46,12.46,0,0,1,187.06,140.42Z" transform="translate(50.76 7.49)"/>
                    </g>
                    <path d="M137.47,130.78s-2.56,2.35-2.18,3.3S137.47,130.78,137.47,130.78Z" transform="translate(50.76 7.49)" style="opacity:0.10000000149011612;isolation:isolate"/>
                    <path d="M139.84,160.93c-1.84-.45-6.93-.86-9.35,7.25a35.88,35.88,0,0,1-2.14,5.49c-2.32,4.77-5.32,14.57,7.87,16.72l31.64,7.19s16.94,2.08,18,1.28a3.08,3.08,0,0,0,1-2.55s-18.69,0-22.37-5.76S160.67,177,160.67,177s.46-12.09-18.86-15.6C141.17,161.24,140.5,161.09,139.84,160.93Z" transform="translate(50.76 7.49)" style="fill:#474157"/>
                    <path d="M139.84,161c-1.84-.45-6.93-.87-9.35,7.25a35.88,35.88,0,0,1-2.14,5.49c-2.32,4.76-5.32,14.56,7.87,16.72l31.64,7.19s16.94,2.08,18,1.28a3.1,3.1,0,0,0,1-2.56s-18.69,0-22.37-5.75S160.67,177,160.67,177s.46-12.09-18.86-15.6C141.17,161.3,140.5,161.14,139.84,161Z" transform="translate(50.76 7.49)" style="opacity:0.10000000149011612;isolation:isolate"/>
                    <path d="M206.17,152.67a4.88,4.88,0,0,0-4.94-4.13c-4.55.08-18.56.69-25.06,4.94,0,0-5,3.19-6.4,3.19s-20.93,16.62,8,31.49c0,0,15.51,4.41,21.58-5.95,0,0,4.31-11.12,4-15S206.21,153,206.21,153,206.2,152.87,206.17,152.67Z" transform="translate(50.76 7.49)" style="fill:#474157"/>
                    <path d="M206.17,155.47a4.79,4.79,0,0,0-4.94-3.82c-4.55.08-18.56.64-25.06,4.56,0,0-5,2.95-6.4,2.95s-20.93,15.35,8,29.07c0,0,15.51,4.07,21.58-5.49,0,0,4.31-10.27,4-13.82s2.88-13.15,2.88-13.15S206.2,155.66,206.17,155.47Z" transform="translate(50.76 7.49)" style="opacity:0.10000000149011612;isolation:isolate"/>
                    <rect x="236.35" y="195.64" width="5.11" height="10.89" style="fill:#5f5d7e"/>
                    <ellipse cx="54.41" cy="150.44" rx="14.4" ry="0.92" style="opacity:0.10000000149011612;isolation:isolate"/>
                    <path d="M15.74,107.33A5.16,5.16,0,0,0,15,108.7c0,.12-.09.25-.14.38l-.25-.08a3.65,3.65,0,0,0-1.14-.1c0-.15,0-.32,0-.47.05-1.68-.15-4-1.76-3S11.3,108,12.3,109l.25.25c-.91.63-1.08,2.15-1.23,3.72S9.84,116.23,9,117.21l-.25.27a3.22,3.22,0,0,0-2.57-.66c0-.14-.08-.28-.12-.44-.71-2.58-2.2-7.06-4.09-8l.25-.32c.8-1,1.71-2.61.37-3s-1.46,1.36-1.39,2.68c0,.16,0,.32,0,.47a1.94,1.94,0,0,0-1.4.68l-.21-.24c-1.08-1.28-3.07-3.32-3.68-1.78s1.19,3.29,2.43,4.36l.07.07c-.82,3.37,2.78,6.12,4.74,7.31l.25.15c-2.69,3.16-4.34,9.09-4.34,9.09l7.51,1.34s5-4.29,4.35-8.33H11c5-1,6.12-6.31,5.34-9.47l.09,0a5.78,5.78,0,0,0,2.31-1.75C20.09,107.61,17.16,105.43,15.74,107.33Z" transform="translate(50.76 7.49)" style="fill:#6c63ff"/>
                    <path d="M15.74,107.33A5.16,5.16,0,0,0,15,108.7c0,.12-.09.25-.14.38l-.25-.08a3.65,3.65,0,0,0-1.14-.1c0-.15,0-.32,0-.47.05-1.68-.15-4-1.76-3S11.3,108,12.3,109l.25.25c-.91.63-1.08,2.15-1.23,3.72S9.84,116.23,9,117.21l-.25.27a3.22,3.22,0,0,0-2.57-.66c0-.14-.08-.28-.12-.44-.71-2.58-2.2-7.06-4.09-8l.25-.32c.8-1,1.71-2.61.37-3s-1.46,1.36-1.39,2.68c0,.16,0,.32,0,.47a1.94,1.94,0,0,0-1.4.68l-.21-.24c-1.08-1.28-3.07-3.32-3.68-1.78s1.19,3.29,2.43,4.36l.07.07c-.82,3.37,2.78,6.12,4.74,7.31l.25.15c-2.69,3.16-4.34,9.09-4.34,9.09l7.51,1.34s5-4.29,4.35-8.33H11c5-1,6.12-6.31,5.34-9.47l.09,0a5.78,5.78,0,0,0,2.31-1.75C20.09,107.61,17.16,105.43,15.74,107.33Z" transform="translate(50.76 7.49)" style="opacity:0.10000000149011612;isolation:isolate"/>
                    <path d="M.77,109.49l-.87,2.58s-.49-.35-1.1-.89c-1.24-1.08-3-2.94-2.43-4.37s2.6.49,3.68,1.78C.48,109.1.77,109.49.77,109.49Z" transform="translate(50.76 7.49)" style="fill:#6c63ff"/>
                    <path d="M2.63,108c-.27.35-.56.68-.86,1a12.13,12.13,0,0,1-.16-1.35c-.07-1.32.07-3.06,1.39-2.67S3.42,107,2.63,108Z" transform="translate(50.76 7.49)" style="fill:#6c63ff"/>
                    <path d="M14,108.43c0,.85-.11,1.52-.11,1.52a10.17,10.17,0,0,1-1.1-1c-1-1-2.09-2.63-.55-3.59S14,106.75,14,108.43Z" transform="translate(50.76 7.49)" style="fill:#6c63ff"/>
                    <path d="M19.16,109.54a5.7,5.7,0,0,1-2.32,1.74,5.46,5.46,0,0,1-.77.28l-1-1.45a12.18,12.18,0,0,1,.43-1.42,5.65,5.65,0,0,1,.73-1.37A1.86,1.86,0,0,1,19.16,109.54Z" transform="translate(50.76 7.49)" style="fill:#6c63ff"/>
                    <path d="M0,108.59c.44.51.73.9.73.9l-.87,2.58s-.49-.35-1.1-.89a4.85,4.85,0,0,1,1-2.26A2.85,2.85,0,0,1,0,108.59Z" transform="translate(50.76 7.49)" style="opacity:0.10000000149011612;isolation:isolate"/>
                    <path d="M2.63,108c-.27.35-.56.68-.86,1a12.13,12.13,0,0,1-.16-1.35A1.79,1.79,0,0,1,2.63,108Z" transform="translate(50.76 7.49)" style="opacity:0.10000000149011612;isolation:isolate"/>
                    <path d="M6.93,118.24l-2.18,1s-.48-.23-1.17-.66c-2.29-1.41-6.91-5-3.81-9.16s5.67,3.33,6.69,7C6.78,117.48,6.93,118.24,6.93,118.24Z" transform="translate(50.76 7.49)" style="fill:#6c63ff"/>
                    <path d="M12.76,109a1.77,1.77,0,0,1,1.2-.55c0,.85-.11,1.52-.11,1.52A11.11,11.11,0,0,1,12.76,109Z" transform="translate(50.76 7.49)" style="opacity:0.10000000149011612;isolation:isolate"/>
                    <path d="M16.84,111.28a5.46,5.46,0,0,1-.77.28l-1-1.45a12.18,12.18,0,0,1,.43-1.42A3.68,3.68,0,0,1,16.84,111.28Z" transform="translate(50.76 7.49)" style="opacity:0.10000000149011612;isolation:isolate"/>
                    <path d="M11.41,120.79l-.37.06C3.71,122,8.62,118,8.62,118s.32-.3.78-.8c.89-1,2.22-2.69,2.37-4.26.23-2.38.49-4.61,3.3-4S18.36,119.4,11.41,120.79Z" transform="translate(50.76 7.49)" style="fill:#6c63ff"/>
                    <rect x="48.04" y="146.52" width="14" height="3.68" style="fill:#474157"/>
                    <rect x="45.81" y="134.55" width="18.29" height="12.85" style="fill:#474157"/>
                    <rect x="47.9" y="146.52" width="14" height="3.68" style="opacity:0.10000000149011612;isolation:isolate"/>
                    <rect x="45.76" y="134.56" width="18.29" height="12.85" style="opacity:0.10000000149011612;isolation:isolate"/>
                    <rect x="48.96" y="146.52" width="14" height="3.68" style="fill:#474157"/>
                    <path d="M6.47,116.4c.32,1.1.48,1.85.48,1.85l-2.19,1a12.63,12.63,0,0,1-1.16-.66A5.48,5.48,0,0,1,6.47,116.4Z" transform="translate(50.76 7.49)" style="opacity:0.10000000149011612;isolation:isolate"/>
                    <path d="M11.41,120.79l-.37.06C3.71,122,8.62,118,8.62,118s.32-.3.78-.8A4.81,4.81,0,0,1,11.41,120.79Z" transform="translate(50.76 7.49)" style="opacity:0.10000000149011612;isolation:isolate"/>
                    <path d="M-.49,127.79s4.1-14.7,9.86-10.16S7,129.13,7,129.13Z" transform="translate(50.76 7.49)" style="fill:#6c63ff"/>
                    <circle cx="52.33" cy="119.17" r="0.46" style="opacity:0.10000000149011612;isolation:isolate"/>
                    <circle cx="52.29" cy="121.32" r="0.46" style="opacity:0.10000000149011612;isolation:isolate"/>
                    <circle cx="65.64" cy="119.59" r="0.46" style="opacity:0.10000000149011612;isolation:isolate"/>
                    <circle cx="54.9" cy="130.6" r="0.46" style="opacity:0.10000000149011612;isolation:isolate"/>
                    <circle cx="64.69" cy="123.16" r="0.46" style="opacity:0.10000000149011612;isolation:isolate"/>
                    <circle cx="59.93" cy="127.92" r="0.46" style="opacity:0.10000000149011612;isolation:isolate"/>
                    <circle cx="53.91" cy="120.09" r="0.46" style="opacity:0.10000000149011612;isolation:isolate"/>
                    <circle cx="64.38" cy="120.98" r="0.46" style="opacity:0.10000000149011612;isolation:isolate"/>
                    <circle cx="62.81" cy="124.54" r="0.46" style="opacity:0.10000000149011612;isolation:isolate"/>
                    <circle cx="57.97" cy="130.26" r="0.46" style="opacity:0.10000000149011612;isolation:isolate"/>
                    <circle cx="56.97" cy="127.99" r="0.46" style="opacity:0.10000000149011612;isolation:isolate"/>
                    <circle cx="54.6" cy="122.89" r="0.46" style="opacity:0.10000000149011612;isolation:isolate"/>
                    <rect x="48.96" y="146.52" width="14" height="1.35" style="opacity:0.10000000149011612;isolation:isolate"/>
                    <rect x="46.73" y="134.55" width="18.29" height="12.85" style="fill:#474157"/>
                    <circle cx="58.58" cy="132.33" r="0.46" style="opacity:0.10000000149011612;isolation:isolate"/>
                    <circle cx="55.82" cy="132.9" r="0.46" style="opacity:0.10000000149011612;isolation:isolate"/>
                    <path d="M48.93,176.16s2.28,3-1,7.49-6.08,8.31-5,11.11c0,0,5-8.37,9.13-8.48S53.43,181.19,48.93,176.16Z" transform="translate(50.76 7.49)" style="fill:#6c63ff"/>
                    <path d="M48.93,176.16a3.73,3.73,0,0,1,.46.94c4,4.69,6.12,9.07,2.29,9.18-3.58.11-7.87,6.5-8.9,8.1l.12.37s5-8.36,9.13-8.48S53.43,181.19,48.93,176.16Z" transform="translate(50.76 7.49)" style="opacity:0.10000000149011612;isolation:isolate"/>
                    <path d="M53.17,180c0,1.05-.12,1.9-.27,1.9s-.26-.85-.26-1.9.15-.56.29-.56S53.17,178.92,53.17,180Z" transform="translate(50.76 7.49)" style="fill:#ffd037"/>
                    <path d="M54.62,181.22c-.92.5-1.72.81-1.79.68s.62-.64,1.54-1.14.56-.14.64,0S55.54,180.72,54.62,181.22Z" transform="translate(50.76 7.49)" style="fill:#ffd037"/>
                    <path d="M36.88,176.16s-2.28,3,1,7.49,6.08,8.31,5,11.11c0,0-5-8.37-9.12-8.48S32.38,181.19,36.88,176.16Z" transform="translate(50.76 7.49)" style="fill:#6c63ff"/>
                    <path d="M36.88,176.16a3.76,3.76,0,0,0-.47.94c-4,4.69-6.12,9.07-2.28,9.18,3.58.11,7.87,6.5,8.9,8.1,0,.13-.08.25-.13.37s-5-8.36-9.12-8.47S32.38,181.19,36.88,176.16Z" transform="translate(50.76 7.49)" style="opacity:0.10000000149011612;isolation:isolate"/>
                    <path d="M32.64,180c0,1.05.12,1.9.27,1.9s.26-.85.26-1.9-.15-.56-.29-.56S32.64,178.92,32.64,180Z" transform="translate(50.76 7.49)" style="fill:#ffd037"/>
                    <path d="M31.19,181.22c.92.5,1.72.81,1.79.68s-.62-.64-1.54-1.14-.56-.14-.64,0S30.27,180.72,31.19,181.22Z" transform="translate(50.76 7.49)" style="fill:#ffd037"/>
                    <ellipse cx="93.66" cy="221.4" rx="23.84" ry="3.66" style="fill:#6c63ff;opacity:0.10000000149011612;isolation:isolate"/>
                    <path d="M55.18,190.74l-.12.93L54.9,193l-.06.54-.17,1.32-.06.55-.16,1.31-1.81,15c-.17,1.34-2.35,2.38-5,2.38h-9.5c-2.63,0-4.79-1-5-2.38l-1.83-15-.16-1.31-.07-.55L31,193.53l-.06-.54-.16-1.32-.12-.93c-.09-.75,1.09-1.39,2.58-1.39H52.6C54.09,189.35,55.27,190,55.18,190.74Z" transform="translate(50.76 7.49)" style="fill:#65617d"/>
                    <polygon points="105.82 199.16 105.66 200.47 81.66 200.47 81.5 199.16 105.82 199.16" style="fill:#9d9cb5"/>
                    <polygon points="105.59 201.02 105.43 202.34 81.89 202.34 81.73 201.02 105.59 201.02" style="fill:#9d9cb5"/>
                    <polygon points="105.36 202.89 105.2 204.2 82.12 204.2 81.96 202.89 105.36 202.89" style="fill:#9d9cb5"/>
                </g>
            </g>
        </g>
    </g>
</svg>
