<?xml version="1.0" encoding="UTF-8"?>
<svg id="Layer_1" data-name="Layer 1" xmlns="http://www.w3.org/2000/svg" viewBox="0 0 224 224">
  <defs>
    <style>
      .cls-1 {
        fill: #e2205c;
      }

      .cls-1, .cls-2, .cls-3, .cls-4, .cls-5 {
        stroke-width: 0px;
      }

      .cls-2 {
        fill: #d6d6d6;
      }

      .cls-3 {
        fill: #f22f66;
      }

      .cls-4 {
        fill: #e5e5e5;
      }

      .cls-5 {
        fill: #00c9a2;
      }
    </style>
  </defs>
  <path class="cls-5" d="M224,112c0,35.41-16.43,66.98-42.08,87.5-19.16,15.33-43.47,24.5-69.92,24.5-9.73,0-19.18-1.24-28.18-3.58h-.01c-15.46-4.01-29.63-11.23-41.73-20.92C16.43,178.98,0,147.41,0,112,0,50.15,50.14,0,112,0s112,50.15,112,112Z"/>
  <g>
    <path class="cls-4" d="M112,56.51c-23.81,0-43.11,21.39-43.11,47.77,0,12.31,4.2,23.53,11.1,32l64-64c-7.89-9.68-19.3-15.77-32-15.77Z"/>
    <path class="cls-2" d="M80,136.28c7.89,9.68,19.3,15.77,32,15.77,23.81,0,43.11-21.39,43.11-47.77,0-12.31-4.2-23.53-11.1-32l-64,64Z"/>
  </g>
  <path class="cls-2" d="M136.12,159.89c-4.09,0-13.58-7.52-10.91-11.27h-26.51c2.67,3.76-6.82,11.27-10.91,11.27l24.17,10.77,24.17-10.77Z"/>
  <g>
    <path class="cls-3" d="M142.41,161.82l-58.6,58.6c-15.46-4.01-29.63-11.23-41.73-20.92,9.22-20.13,27.67-35.52,50.22-41.27.01,0,8.12,5.86,19.7,5.86,11.47-.02,19.69-5.85,19.69-5.85,3.69.94,7.27,2.15,10.72,3.58Z"/>
    <path class="cls-1" d="M181.92,199.5c-19.16,15.33-43.47,24.5-69.92,24.5-9.73,0-19.18-1.24-28.18-3.58l58.6-58.61c17.63,7.34,31.79,20.85,39.5,37.69Z"/>
  </g>
</svg>