<?xml version="1.0" encoding="UTF-8"?>
<svg id="Layer_1" data-name="Layer 1" xmlns="http://www.w3.org/2000/svg" viewBox="0 0 506.93 558.77">
  <defs>
    <style>
      .cls-1 {
        fill: #f9f9f9;
      }

      .cls-1, .cls-2, .cls-3, .cls-4, .cls-5, .cls-6 {
        stroke-width: 0px;
      }

      .cls-2 {
        fill: #e2205c;
      }

      .cls-3 {
        fill: #ededed;
      }

      .cls-4 {
        fill: #f22f66;
      }

      .cls-5 {
        fill: #e2e2e2;
      }

      .cls-6 {
        fill: #00c9a2;
      }
    </style>
  </defs>
  <g id="Robot">
    <g id="Neck">
      <rect class="cls-3" x="118.38" y="364.93" width="272.19" height="21.89"/>
      <polyline class="cls-3" points="221.13 386.82 390.56 386.82 390.56 364.93 242.81 364.93"/>
    </g>
    <g id="Head">
      <g id="Ears">
        <path class="cls-3" d="M491.95,232.73c0,11.23-9.22,20.45-20.74,20.45h0c-11.23,0-20.45-9.22-20.74-20.45h0v-51.27c0-11.23,9.22-20.45,20.74-20.45h0c11.23,0,20.45,9.22,20.74,20.45h0v51.27Z"/>
        <path class="cls-3" d="M471.79,250.87c0,11.23-9.22,20.45-20.74,20.45h0c-11.23,0-20.45-9.22-20.74-20.45h0v-87.56c0-11.23,9.22-20.45,20.74-20.45h0c11.23,0,20.45,9.22,20.74,20.45h0v87.56Z"/>
        <path class="cls-3" d="M14.98,232.73c0,11.23,9.22,20.45,20.74,20.45h0c11.23,0,20.45-9.22,20.74-20.45h0v-51.27c0-11.23-9.22-20.45-20.74-20.45h0c-11.23,0-20.45,9.22-20.74,20.45h0s0,51.27,0,51.27Z"/>
        <path class="cls-3" d="M35.14,250.87c0,11.23,9.22,20.45,20.74,20.45h0c11.23,0,20.45-9.22,20.74-20.45h0v-87.56c0-11.23-9.22-20.45-20.74-20.45h0c-11.23,0-20.45,9.22-20.74,20.45h0s0,87.56,0,87.56Z"/>
      </g>
      <path class="cls-3" d="M388.83,72.29h-122.69V12.67c0-6.91-5.76-12.67-12.67-12.67s-12.67,5.76-12.67,12.67v59.62h-122.41c-28.63,0-51.84,23.21-51.84,51.84v188.95c0,28.63,23.21,51.84,51.84,51.84h270.45c28.32,0,51.28-22.96,51.28-51.28V123.57c0-28.32-22.96-51.28-51.28-51.28Z"/>
      <path class="cls-3" d="M440.11,123.56v189.52c0,28.63-23.13,51.84-51.66,51.84H118.38L389.02,72.29h0c28.21,0,51.09,22.95,51.09,51.27Z"/>
      <g id="Face">
        <path class="cls-3" d="M184.34,237.62c-1.73,0-3.46-.58-4.61-2.02l-26.5-26.5c-2.59-2.59-2.59-6.62,0-9.22h0c2.59-2.59,6.62-2.59,9.22,0l26.5,26.5c2.59,2.59,2.59,6.62,0,9.22-1.15,1.44-2.88,2.02-4.61,2.02Z"/>
        <path class="cls-3" d="M157.84,237.62c-3.46,0-6.62-2.88-6.62-6.62,0-1.73.58-3.46,2.02-4.61l26.5-26.5c2.59-2.59,6.62-2.59,9.22,0,2.59,2.59,2.59,6.62,0,9.22h0l-26.5,26.5c-1.44,1.44-2.88,2.02-4.61,2.02Z"/>
        <path class="cls-3" d="M349.09,237.62c-1.73,0-3.46-.58-4.61-2.02l-26.5-26.5c-2.59-2.59-2.59-6.62,0-9.22h0c2.59-2.59,6.62-2.59,9.22,0l26.5,26.5c2.59,2.59,2.59,6.62,0,9.22-1.15,1.44-2.88,2.02-4.61,2.02Z"/>
        <path class="cls-3" d="M322.59,237.62c-3.46,0-6.62-2.88-6.62-6.62,0-1.73.58-3.46,2.02-4.61l26.5-26.5c2.59-2.59,6.62-2.59,9.22,0,2.59,2.59,2.59,6.62,0,9.22h0l-26.5,26.5c-1.15,1.44-2.88,2.02-4.61,2.02Z"/>
        <path class="cls-3" d="M319.71,305.31c-3.17,0-5.76-2.02-6.91-4.9-8.64-23.04-32.55-38.31-59.33-38.31s-50.69,15.27-59.33,38.31c-1.44,3.74-5.76,5.76-9.5,4.32-3.74-1.44-5.76-5.76-4.32-9.5h0c10.95-28.8,40.32-48.1,73.45-48.1s62.5,19.3,73.45,48.1c1.44,3.74-.58,8.06-4.32,9.5-1.44.29-2.3.58-3.17.58Z"/>
      </g>
    </g>
    <g id="Body">
      <g>
        <path class="cls-3" d="M51.84,386.82c-28.63,0-51.84,23.21-51.84,51.84v120.11h168.77l171.95-171.95H51.84Z"/>
        <path class="cls-3" d="M455.08,386.82h-114.36l-171.95,171.95h338.16v-120.11c0-28.63-23.21-51.84-51.84-51.84Z"/>
      </g>
      <g id="Button">
        <path class="cls-3" d="M233.2,453.83h0c-11.19,11.19-11.19,29.34,0,40.53l40.53-40.53c-11.19-11.19-29.34-11.19-40.53,0Z"/>
        <path class="cls-3" d="M273.73,453.83h0s-40.53,40.53-40.53,40.53h0c11.19,11.19,29.34,11.19,40.53,0,11.19-11.19,11.19-29.34,0-40.53Z"/>
      </g>
      <g id="Button-2" data-name="Button">
        <path class="cls-3" d="M319.61,453.83h0c-11.19,11.19-11.19,29.34,0,40.53l40.53-40.53c-11.19-11.19-29.34-11.19-40.53,0Z"/>
        <path class="cls-3" d="M360.14,453.83h0s-40.53,40.53-40.53,40.53h0c11.19,11.19,29.34,11.19,40.53,0,11.19-11.19,11.19-29.34,0-40.53Z"/>
      </g>
      <g id="Button-3" data-name="Button">
        <path class="cls-3" d="M146.79,453.83h0c-11.19,11.19-11.19,29.34,0,40.53l40.53-40.53c-11.19-11.19-29.34-11.19-40.53,0Z"/>
        <path class="cls-3" d="M187.32,453.83h0s-40.53,40.53-40.53,40.53h0c11.19,11.19,29.34,11.19,40.53,0,11.19-11.19,11.19-29.34,0-40.53Z"/>
      </g>
    </g>
  </g>
  <g id="Robot-2" data-name="Robot">
    <g id="Neck-2" data-name="Neck">
      <rect class="cls-4" x="118.38" y="364.93" width="272.19" height="21.89"/>
      <polyline class="cls-2" points="221.13 386.82 390.56 386.82 390.56 364.93 242.81 364.93"/>
    </g>
    <g id="Head-2" data-name="Head">
      <g id="Ears-2" data-name="Ears">
        <path class="cls-4" d="M491.95,232.73c0,11.23-9.22,20.45-20.74,20.45h0c-11.23,0-20.45-9.22-20.74-20.45h0v-51.27c0-11.23,9.22-20.45,20.74-20.45h0c11.23,0,20.45,9.22,20.74,20.45h0v51.27Z"/>
        <path class="cls-5" d="M471.79,250.87c0,11.23-9.22,20.45-20.74,20.45h0c-11.23,0-20.45-9.22-20.74-20.45h0v-87.56c0-11.23,9.22-20.45,20.74-20.45h0c11.23,0,20.45,9.22,20.74,20.45h0v87.56Z"/>
        <path class="cls-4" d="M14.98,232.73c0,11.23,9.22,20.45,20.74,20.45h0c11.23,0,20.45-9.22,20.74-20.45h0v-51.27c0-11.23-9.22-20.45-20.74-20.45h0c-11.23,0-20.45,9.22-20.74,20.45h0s0,51.27,0,51.27Z"/>
        <path class="cls-5" d="M35.14,250.87c0,11.23,9.22,20.45,20.74,20.45h0c11.23,0,20.45-9.22,20.74-20.45h0v-87.56c0-11.23-9.22-20.45-20.74-20.45h0c-11.23,0-20.45,9.22-20.74,20.45h0s0,87.56,0,87.56Z"/>
      </g>
      <path class="cls-1" d="M388.83,72.29h-122.69V12.67c0-6.91-5.76-12.67-12.67-12.67s-12.67,5.76-12.67,12.67v59.62h-122.41c-28.63,0-51.84,23.21-51.84,51.84v188.95c0,28.63,23.21,51.84,51.84,51.84h270.45c28.32,0,51.28-22.96,51.28-51.28V123.57c0-28.32-22.96-51.28-51.28-51.28Z"/>
      <path class="cls-3" d="M440.11,123.56v189.52c0,28.63-23.13,51.84-51.66,51.84H118.38L389.02,72.29h0c28.21,0,51.09,22.95,51.09,51.27Z"/>
      <g id="Face-2" data-name="Face">
        <path class="cls-6" d="M184.34,237.62c-1.73,0-3.46-.58-4.61-2.02l-26.5-26.5c-2.59-2.59-2.59-6.62,0-9.22h0c2.59-2.59,6.62-2.59,9.22,0l26.5,26.5c2.59,2.59,2.59,6.62,0,9.22-1.15,1.44-2.88,2.02-4.61,2.02Z"/>
        <path class="cls-6" d="M157.84,237.62c-3.46,0-6.62-2.88-6.62-6.62,0-1.73.58-3.46,2.02-4.61l26.5-26.5c2.59-2.59,6.62-2.59,9.22,0,2.59,2.59,2.59,6.62,0,9.22h0l-26.5,26.5c-1.44,1.44-2.88,2.02-4.61,2.02Z"/>
        <path class="cls-6" d="M349.09,237.62c-1.73,0-3.46-.58-4.61-2.02l-26.5-26.5c-2.59-2.59-2.59-6.62,0-9.22h0c2.59-2.59,6.62-2.59,9.22,0l26.5,26.5c2.59,2.59,2.59,6.62,0,9.22-1.15,1.44-2.88,2.02-4.61,2.02Z"/>
        <path class="cls-6" d="M322.59,237.62c-3.46,0-6.62-2.88-6.62-6.62,0-1.73.58-3.46,2.02-4.61l26.5-26.5c2.59-2.59,6.62-2.59,9.22,0,2.59,2.59,2.59,6.62,0,9.22h0l-26.5,26.5c-1.15,1.44-2.88,2.02-4.61,2.02Z"/>
        <path class="cls-6" d="M319.71,305.31c-3.17,0-5.76-2.02-6.91-4.9-8.64-23.04-32.55-38.31-59.33-38.31s-50.69,15.27-59.33,38.31c-1.44,3.74-5.76,5.76-9.5,4.32-3.74-1.44-5.76-5.76-4.32-9.5h0c10.95-28.8,40.32-48.1,73.45-48.1s62.5,19.3,73.45,48.1c1.44,3.74-.58,8.06-4.32,9.5-1.44.29-2.3.58-3.17.58Z"/>
      </g>
    </g>
    <g id="Body-2" data-name="Body">
      <g>
        <path class="cls-1" d="M51.84,386.82c-28.63,0-51.84,23.21-51.84,51.84v120.11h168.77l171.95-171.95H51.84Z"/>
        <path class="cls-3" d="M455.08,386.82h-114.36l-171.95,171.95h338.16v-120.11c0-28.63-23.21-51.84-51.84-51.84Z"/>
      </g>
      <g id="Button-4" data-name="Button">
        <path class="cls-4" d="M233.2,453.83h0c-11.19,11.19-11.19,29.34,0,40.53l40.53-40.53c-11.19-11.19-29.34-11.19-40.53,0Z"/>
        <path class="cls-2" d="M273.73,453.83h0s-40.53,40.53-40.53,40.53h0c11.19,11.19,29.34,11.19,40.53,0,11.19-11.19,11.19-29.34,0-40.53Z"/>
      </g>
      <g id="Button-5" data-name="Button">
        <path class="cls-4" d="M319.61,453.83h0c-11.19,11.19-11.19,29.34,0,40.53l40.53-40.53c-11.19-11.19-29.34-11.19-40.53,0Z"/>
        <path class="cls-2" d="M360.14,453.83h0s-40.53,40.53-40.53,40.53h0c11.19,11.19,29.34,11.19,40.53,0,11.19-11.19,11.19-29.34,0-40.53Z"/>
      </g>
      <g id="Button-6" data-name="Button">
        <path class="cls-4" d="M146.79,453.83h0c-11.19,11.19-11.19,29.34,0,40.53l40.53-40.53c-11.19-11.19-29.34-11.19-40.53,0Z"/>
        <path class="cls-2" d="M187.32,453.83h0s-40.53,40.53-40.53,40.53h0c11.19,11.19,29.34,11.19,40.53,0,11.19-11.19,11.19-29.34,0-40.53Z"/>
      </g>
    </g>
  </g>
</svg>