<?xml version="1.0" encoding="utf-8"?>
<!-- Generator: Adobe Illustrator 28.3.0, SVG Export Plug-In . SVG Version: 6.00 Build 0)  -->
<svg version="1.1" id="Layer_1" xmlns="http://www.w3.org/2000/svg" xmlns:xlink="http://www.w3.org/1999/xlink" x="0px" y="0px"
	 viewBox="0 0 1024 1024" style="enable-background:new 0 0 1024 1024;" xml:space="preserve">
<style type="text/css">
	.st0{opacity:0.48;fill:#5E65EA;}
	.st1{fill:#4E4F55;}
	.st2{fill:#6F6F77;}
	.st3{fill:#F2F6F6;}
	.st4{fill:#FFFFFF;}
	.st5{fill:#F0F3FC;}
	.st6{fill:#F57154;}
	.st7{fill:#E2215B;}
	.st8{fill:#00C9A2;}
	.st9{fill:#FBA56F;}
	.st10{fill:#4E5B6A;}
	.st11{clip-path:url(#SVGID_00000071543737947437438340000007394949581219512720_);}
	.st12{clip-path:url(#SVGID_00000082366020504025403730000011552687066630314143_);fill:#FAFAFA;}
	.st13{clip-path:url(#SVGID_00000082366020504025403730000011552687066630314143_);fill:#EDEDED;}
	.st14{clip-path:url(#SVGID_00000071543737947437438340000007394949581219512720_);fill:#FAFAFA;}
	.st15{clip-path:url(#SVGID_00000071543737947437438340000007394949581219512720_);fill:#EDEDED;}
	.st16{clip-path:url(#SVGID_00000025435627098855640660000004604746149441958819_);fill:#E3215C;}
	.st17{clip-path:url(#SVGID_00000025435627098855640660000004604746149441958819_);fill:#F22E66;}
	.st18{clip-path:url(#SVGID_00000071543737947437438340000007394949581219512720_);fill:#E3215C;}
	.st19{clip-path:url(#SVGID_00000071543737947437438340000007394949581219512720_);fill:#F22E66;}
	.st20{clip-path:url(#SVGID_00000135692198482777839570000001994299892327568306_);fill:#F22E66;}
	.st21{clip-path:url(#SVGID_00000135692198482777839570000001994299892327568306_);fill:#E3215C;}
</style>
<g>
	<g>
		<path class="st0" d="M541.4,237c-12.3,10.1-24.6,20.3-37,30.3c-77.5,62.2-155,124.5-232.6,186.7c-39.4,31.5-78.9,62.8-118.3,94.4
			c-20.6,16.5-41.1,33.3-62.1,49.4c-0.8-2.4-1.2-4.8-1-7.4c0.7-8.3-1.3-16.5-1-24.9c1.3-36.6,8.3-71.9,23-105.7
			c10.3-23.8,23.9-45.6,39.9-65.9c16.4-20.8,35.3-39,56-55.7c15.7-12.6,32-24.2,49.2-34.5c15.9-9.6,32.6-17.8,49.7-25.3
			c27.5-12,55.9-21,85.1-27.8c18.7-4.3,37.5-7.7,56.6-9.9c17-1.9,33.9-3.1,51-4.1c12.7-0.8,25.3-0.2,37.9-0.7
			C539,235.8,540.4,235.7,541.4,237L541.4,237z"/>
		<path class="st0" d="M927.1,489.2c2.9,9,3.7,18.5,5,27.8c2,14.3,2.7,28.8,2.1,43.2c-1.5,32.9-8.2,64.6-20.8,95.1
			c-9.2,22.3-21.4,42.7-36,61.7c-13.1,17-28.1,32.2-44.3,46.2c-13.8,12-28.5,22.8-43.8,32.7c-22.2,14.4-45.7,26.4-70.1,36.7
			c-23,9.7-46.8,17.1-70.9,23.1c-18.3,4.6-36.8,8.1-55.5,10.6c-17.5,2.4-35.2,3.8-52.8,5.1c-16.3,1.2-32.6,1-48.8,0.5
			c-14.8-0.5-29.7-1.6-44.5-3.9c-0.8-0.1-1.5-0.6-2.3-0.9c1.2-1.3,2.3-2.9,3.7-4c13.1-10.5,26.1-20.9,39.3-31.3
			c33.9-26.6,67.8-53.2,101.8-79.8c35-27.4,70-54.7,105.1-82.1c36.3-28.4,72.7-56.7,109.1-85c33-25.7,65.9-51.4,98.9-77
			C910.3,501.6,918,494.5,927.1,489.2L927.1,489.2z"/>
		<path class="st1" d="M70.4,648.8c0.8,1,0.8,2.2,0.7,3.3c-1.1,15.1,6.6,26.1,18,34.2c15.6,11,31.9,21.1,48.1,31.4
			c38.1,24.4,76.4,48.7,114.5,73c23.3,14.8,46.5,29.8,69.9,44.5c18.5,11.6,39,15.4,60.7,14c17.3-1.1,33.8-5.2,48.2-14.7
			c13.5-9,26-19.5,38.9-29.4c38.3-29.7,76.6-59.4,114.8-89.1c73.6-57.1,147.6-114.7,224.9-174.6c40.4-31.3,80.9-62.5,121.4-93.6
			c16-12.3,24.7-28,22.9-48.7c0.3,1.3,0.7,2.6,0.9,3.9c2.6,14.3,1,29,3,43.3c2.2,16.1-4.6,28-16.1,38.2c-1.9,1.6-3.7,3.4-5.6,4.9
			c-16.5,12.9-33.1,25.7-49.7,38.6c-81,62.8-162,125.7-243,188.5c-47.5,36.8-95.1,73.4-142.7,110.1c-20.1,15.5-40.5,30.7-61.3,45.4
			c-15.5,11-32.8,17.3-51.8,19.2c-23.8,2.4-46.7-0.6-67.2-13.5c-45.1-28.3-90-57-134.9-85.6c-32.9-20.9-65.7-41.8-98.5-62.8
			c-3.5-3.8-7.1-7.4-10.4-11.4c-5.1-6.2-7.9-13.2-7.5-21.5c0.6-12.8,0.6-25.5,0.9-38.3C69.5,655.1,69.2,651.9,70.4,648.8L70.4,648.8
			z"/>
		<path class="st2" d="M71.3,651.6 M66.9,634.7c1.9-11.3,9-25.5,19.9-35.9c1.2-1.1,2.1-2,2.6-2.3c21-16,41.5-32.8,62.1-49.4
			c39.4-31.5,78.9-62.8,118.3-94.4c77.6-62.2,155.1-124.4,232.6-186.7c12.4-10,24.7-20.2,37-30.3c11.8-9.3,24-18.2,35.3-28.2
			c14.2-12.6,30.7-19.6,49.1-22.5c19.3-2.9,38.5-2.3,57.1,4.4c5.2,1.9,10.1,4.3,14.7,7.3c79.3,51.4,159.1,102,238.8,152.6
			c12.6,8,19.9,18.8,19.2,34.2c-0.2,4.6,0.6,9.3,1,13.9c0,1.5-0.1,2.9-0.1,4.4c1.8,20.6-6.9,36.3-22.9,48.7
			c-40.5,31.2-81,62.3-121.4,93.6c-75,58.1-149.9,116.4-224.9,174.6c-38.3,29.7-76.5,59.4-114.8,89.1c-12.9,10-25.4,20.5-38.9,29.4
			c-14.4,9.5-30.9,13.6-48.2,14.7c-21.7,1.4-42.1-2.4-60.7-14c-23.4-14.6-46.6-29.6-69.9-44.5c-56.5-36-85.2-53-114.5-73
			c-15-10.3-29.5-17.6-48.1-31.4C81.3,682.6,62.8,659.3,66.9,634.7z M710.9,266.7c-1,3,1.6,3.7,3.2,4.8c20,12.7,39.9,25.5,60,38.1
			c10.1,6.3,20.4,12.4,30.7,18.4c4.9,2.9,9.7,2.3,14.3-1.3c5.9-4.6,12-8.9,18-13.3c1.2-0.9,3.3-1.5,2-3.8c1.3-3.5-1.5-4.8-3.7-6.1
			c-30.4-19.3-60.9-38.6-91.3-57.9c-3.6-2.3-7.1-2.4-10.6,0.2c-6.9,5.2-13.8,10.3-20.7,15.6C711.1,262.6,709.4,264.1,710.9,266.7
			L710.9,266.7z M186.4,624.5c0.5,0.4,0.9,0.9,1.5,1.3c63.1,40.6,126.3,81,189.3,121.8c12.1,7.8,24.4,14.4,38.9,15.5
			c14.6,1.1,28.8-0.1,42.1-7.2c8-4.2,14.6-10.2,21.7-15.6c21.6-16.3,42.7-33.4,64.2-50c35.5-27.2,70-55.8,105.9-82.5
			c27.9-20.7,55-42.6,82.4-64c40.4-31.5,80.9-62.9,121.2-94.5c6.8-5.3,14.6-9.6,20.1-16.3c9.6-11.7,10.4-33.7-10.5-46
			c-18.8-11.1-37-23.1-55.5-34.6c-13.4-8.4-26.8-16.6-40.2-25c-3.1-2.2-6.2-4.4-9.4-6.5c-33.7-21.4-67.4-42.7-101.2-64.1
			c-10.5-6.6-20.7-13.7-33.4-16.2c-7.6-1.5-15.2-1.1-22.9-1.1c-15.5-0.1-30.1,3.7-43.1,12.3c-13.4,8.9-25.3,19.7-37.9,29.6
			c-30.3,23.9-60.5,47.9-90.7,72c-31.2,24.9-62.4,50-93.6,74.9c-25.9,20.7-51.7,41.4-77.6,62.1c-31.1,24.8-62.1,49.7-93.4,74.3
			c-3.5,2.7-6.4,5.7-8.3,9.5c-6.4,12.2-2.4,27.6,9.8,36.7C172.4,616.1,179.5,620.2,186.4,624.5L186.4,624.5z M195.8,682.6
			c-1.8-0.1-3.2,0.9-4.5,1.8c-4.4,3.2-8.8,6.5-13.2,9.8c-4.3,3.2-4.2,5.3,0.4,8.2c9.3,5.9,18.6,11.7,27.8,17.6
			c18.9,12,37.9,24.1,56.8,36.2c6.7,4.2,7.5,4.2,13.6-0.6c3.4-2.7,6.9-5.2,10.3-7.9c4.8-3.8,4.9-5.8-0.2-9c-28.5-18-57-36-85.6-54
			C199.6,683.7,197.9,682.4,195.8,682.6L195.8,682.6z"/>
		<path class="st3" d="M769.5,328.8c32.1,19.5,63.5,40.2,95.7,59.6c20.9,12.3,20.1,34.3,10.5,46c-45.9,38.1-94.6,73.5-141.4,110.8
			c-91.7,70.2-181.4,143.2-274.1,212c-26.2,13.3-57.7,8.6-81-8.3c-63.4-41.3-127.6-81.6-190.8-123c30.8-12.7,61.9-24.9,92.1-39
			c49.4,28.3,95.2,63.6,145.5,90c21.3,7.4,64.8-10.8,38.9-34.2c-42.1-26.1-83.5-53.4-125.5-79.8c0.4-2.5,2.7-2.8,4.4-3.5
			c27.8-11.7,55-24.8,82.4-37.6c38.9-16.7,75.7-38.2,114.4-54.7c29.8,19.5,60.7,37.4,89.8,57.9c0.7-0.2,1.5,0.6,2,1l0,0
			c0.3,3.2,2.7,3,5,3.1c0.5,0.3,0.9,0.6,1.3,1c0.7,0,1.1,0.7,1.7,1l0,0c0.2,2,1.6,2,3,2l0,0c0.1,2,1.5,2.1,3,2l-0.1,0
			c0.4,0.9,1.2,1,2,1.1c0.3,3,2.5,2.9,4.7,2.9c0.5,0.3,0.9,0.7,1.4,1l-0.1,0c16.3,12.2,29.9-10.6,43.2-17.8
			c16-11.9,32.2-23.7,47.8-36.1l0,0c4.1-2.9,7.4-1.8,3-8h0c-0.3-0.3-0.7-0.7-1-1l0,0c-34.7-20.9-68.5-43.4-102.9-64.7
			c36.2-26.3,77.5-48.1,113-76.5C761,332.9,764,328.4,769.5,328.8L769.5,328.8z"/>
		<path class="st4" d="M769.5,328.8c-5.5-0.4-8.6,4.1-12.2,6.9c-33.6,25.3-68.8,48-104.6,69.9c-3,1.9-7,2.6-8.4,6.6
			c-2-0.3-3.2-1.9-4.8-2.9c-24.5-15.9-49-31.8-73.6-47.7c-12.4-8-25-15.9-37.3-24.1c-7.4-4.9-14.3-4.8-21.2,0.4
			c-6.8,5.1-13.5,10.3-20.2,15.5c-16.3,12.6-32.6,25.2-48.9,37.9c-3.9,3-3.9,6.2-0.2,9.5c1.1,1,2.4,1.9,3.6,2.7
			c17.3,11.1,34.6,22.3,52,33.4c15.7,10,31.3,20.1,47,30.1c-6.9,1-12.6,5-18.5,8.2c-16.6,9.1-34,16.6-50.9,25.1
			c-14.8,7.5-30,14.3-45,21.3c-27.4,12.8-54.6,25.9-82.4,37.6c-1.7,0.7-4,1-4.4,3.5c-6-3.8-12-7.7-18.1-11.3
			c-15.7-9.3-31.8-8.8-47.4-0.5c-14.6,7.7-14.6,22.2-0.7,30.9c2.5,1.6,5.4,2.6,7.4,4.9c-8.4,4.9-17.6,7.7-26.4,11.6
			c-18.4,8.1-37,15.7-55.5,23.4c-3.4,1.4-6.8,2.7-10.1,4c-6.9-4.4-14-8.4-20.5-13.3c-12.3-9.1-16.2-24.5-9.8-36.7
			c2-3.8,4.9-6.8,8.3-9.5c31.2-24.7,62.3-49.5,93.3-74.4c25.9-20.7,51.7-41.4,77.6-62.1c31.2-25,62.3-50,93.6-74.9
			c30.2-24.1,60.5-48,90.7-72c12.6-10,24.6-20.7,37.9-29.6c13-8.7,27.5-12.4,43.1-12.3c7.6,0,15.2-0.4,22.9,1.1
			c12.6,2.5,22.9,9.6,33.4,16.2c33.7,21.3,67.5,42.7,101.2,64.1C763.3,324.3,766.4,326.6,769.5,328.8L769.5,328.8z"/>
		<path class="st5" d="M197.8,683.8c2.2-0.2,3.8,1.1,5.5,2.1c28.5,18,57.1,36,85.6,54c5,3.2,5,5.2,0.2,9c-3.4,2.7-6.9,5.2-10.3,7.9
			c-6.1,4.8-6.9,4.8-13.6,0.6c-18.9-12.1-37.9-24.1-56.8-36.2c-9.3-5.9-18.6-11.7-27.8-17.6c-4.6-2.9-4.7-5-0.4-8.2
			c4.4-3.3,8.8-6.6,13.2-9.8C194.6,684.7,196,683.7,197.8,683.8L197.8,683.8z"/>
		<path class="st5" d="M713,267.9c-1.5-2.5,0.2-4.1,1.9-5.4c6.9-5.2,13.8-10.4,20.7-15.6c3.5-2.6,7-2.5,10.6-0.2
			c30.4,19.3,60.9,38.6,91.3,57.9c2.1,1.4,5,2.6,3.7,6.1c-7.5,5.4-15.1,10.9-22.6,16.3c-3.1,2.3-6,3.6-9.7,0.7
			c-3.1-2.5-6.8-4.1-10.2-6.2C770.1,303.7,741.6,285.8,713,267.9L713,267.9z M818.6,306.4c-1.1-3-3.7-4.6-6.2-6.2
			c-14.6-9.2-29.1-18.4-43.7-27.5c-5.9-3.7-11.5-7.9-18-10.4c-7-2.7-12.5-1.3-16.1,4.1c-1.2,3.2,0.1,5.5,2.7,7.2
			c3.6,2.4,7.3,4.6,10.9,6.9c16.1,10.2,32.2,20.4,48.3,30.5c5.9,3.7,12.1,5.5,18.8,2.1C817.9,311.7,820.4,310,818.6,306.4
			L818.6,306.4z"/>
		<path class="st6" d="M713,267.9c28.6,17.9,57.1,35.8,85.7,53.7c3.4,2.1,7.1,3.8,10.2,6.2c3.7,3,6.5,1.6,9.7-0.7
			c7.5-5.5,15.1-10.9,22.6-16.3c1.4,2.3-0.8,2.9-2,3.8c-6,4.5-12.1,8.7-18,13.3c-4.6,3.6-9.4,4.2-14.3,1.3
			c-10.3-6-20.6-12.1-30.7-18.4c-20.1-12.6-40-25.3-60-38.1C714.6,271.6,712,270.9,713,267.9L713,267.9z"/>
		<path class="st7" d="M540.6,466.9c-15.7-10-31.4-20.1-47-30.1c-17.3-11.1-34.6-22.2-52-33.4c-1.3-0.8-2.5-1.7-3.6-2.7
			c-3.7-3.3-3.6-6.5,0.2-9.5c16.3-12.6,32.6-25.3,48.9-37.9c6.7-5.2,13.4-10.4,20.2-15.5c6.9-5.1,13.8-5.3,21.2-0.4
			c12.3,8.2,24.9,16.1,37.3,24.1c24.5,15.9,49.1,31.8,73.6,47.7c1.6,1,2.8,2.7,4.8,2.9c21,13.2,42,26.5,63,39.7
			c12.8,8.1,25.2,16.9,38.6,24c0.4,0.3,0.9,0.6,1.3,1l0,0c0.3,0.3,0.7,0.7,1,1h0c1,2.8-0.1,5-2,7l0,0c-0.3,0.3-0.7,0.6-1,1l0,0
			c-0.4,0.4-0.8,0.8-1.2,1.1c-15.5,11.7-30.9,23.5-46.6,35c-7.8,5.7-15.2,11.7-22.7,17.6c-6,4.8-12.7,4.9-19.5,1.2
			c-0.3-0.3-0.7-0.7-1-1c0,0,0.1,0,0,0c-0.4-0.3-0.7-0.6-1.1-0.9l-0.3-0.2l-0.3,0c-1.1-1.5-2.8-2.2-4.4-2.9l0,0
			c-0.4-0.8-1.1-1.1-2-1.1l0.1,0c-0.6-1.2-1.7-1.8-3-2l0,0c-0.7-1.2-1.7-1.8-3-2l0,0c-0.4-0.3-0.7-0.5-1.1-0.8
			c-0.2-0.2-0.4-0.3-0.6-0.2c-0.5-0.3-0.9-0.6-1.3-1l0,0c-1.4-1.4-3-2.6-5-3.1l0,0c-0.4-0.3-0.7-0.6-1.1-0.9l-0.1,0
			c-0.2-0.5-0.5-0.6-0.8-0.1c-13.2-10-27.7-18.2-41.6-27.2C572.8,487.3,556.7,477.1,540.6,466.9L540.6,466.9z M561.5,391.3
			c-14.5,12.6-28.4,24.7-42.3,36.8c-2,1.8-5.4,3.4-4.4,6.5c1,3.1,4.7,3.1,7.6,3.9c2.6,0.7,4.5-0.6,6.3-2.1c8.2-7,16.5-13.9,24.7-21
			c9.2-8,18.2-16,27.3-24.1c1.4-1.3,3.3-2.8,2.4-5c-0.7-1.8-2.5-2.3-4.5-2.5c-7-0.9-14-2-21.1-2.8c-5.1-0.6-10.6-2.5-14.9,2.4
			c-1,1.1-2.7,1.7-2.3,3.5c0.5,2,2.4,2,4,2.2C549.8,389.7,555.3,390.5,561.5,391.3L561.5,391.3z M549,436.8
			c-1.6-0.3-3.5,0.4-5.3,1.2c-3.2,1.6-6.4,3.7-5.6,7.9c0.8,4.1,4.7,4.3,8,4.7c2.5,0.3,5-0.5,7.1-2c2.6-1.9,5.4-4.1,4.1-7.7
			C556.1,437.4,552.9,436.6,549,436.8L549,436.8z"/>
		<path class="st8" d="M280.5,586.7c-2-2.3-4.9-3.4-7.4-4.9c-13.9-8.7-13.9-23.2,0.7-30.9c15.6-8.3,31.8-8.8,47.4,0.5
			c6.1,3.6,12.1,7.5,18.1,11.3c24.5,15.7,49.1,31.3,73.7,47c14.6,9.4,29.2,18.8,43.9,28.1c2.6,1.6,5.3,3.1,7.9,4.7
			c10,6,10.5,21.7-0.8,28.5c-11.7,7-24.6,8.9-38,5.7c-7.5-1.8-13.3-6.7-19.6-10.7c-40.5-25.6-81-51.4-121.4-77
			C283.5,588.2,282,587.5,280.5,586.7L280.5,586.7z"/>
		<path class="st9" d="M746.3,484.9c1.9-2,3-4.2,2-7C751.4,482.4,751.1,483.7,746.3,484.9z"/>
		<path class="st9" d="M632.3,525.8c2,0.5,3.6,1.7,5,3.1"/>
		<path class="st9" d="M646.3,534.8c0.8,0,1.5,0.3,2,1.1C647.5,535.8,646.7,535.6,646.3,534.8z"/>
		<path class="st9" d="M748.3,477.9c-0.3-0.3-0.7-0.7-1-1C747.6,477.2,747.9,477.5,748.3,477.9z"/>
		<path class="st9" d="M745.3,485.8c0.3-0.3,0.7-0.6,1-1C745.9,485.2,745.6,485.5,745.3,485.8z"/>
		<path class="st9" d="M744.1,487c0.4-0.4,0.8-0.8,1.2-1.1C744.9,486.2,744.5,486.6,744.1,487z"/>
		<path class="st9" d="M630.4,524.8c0.3-0.5,0.6-0.4,0.8,0.1C630.9,524.8,630.7,524.8,630.4,524.8z"/>
		<path class="st9" d="M631.3,524.9c0.4,0.3,0.7,0.6,1.1,0.9C632,525.5,631.7,525.2,631.3,524.9z"/>
		<path class="st9" d="M637.3,528.8c0.5,0.3,0.9,0.6,1.3,1C638.2,529.5,637.8,529.2,637.3,528.8z"/>
		<path class="st9" d="M653.3,538.9c0.4,0.3,0.7,0.6,1.1,0.9C654,539.5,653.7,539.2,653.3,538.9z"/>
		<path class="st9" d="M654.3,539.8c0.3,0.3,0.7,0.7,1,1C655,540.4,654.7,540.1,654.3,539.8z"/>
		<path class="st9" d="M747.3,476.9c-0.4-0.3-0.9-0.6-1.3-1C746.4,476.2,746.8,476.5,747.3,476.9z"/>
		<path class="st10" d="M818.6,306.4c1.7,3.6-0.7,5.3-3.3,6.6c-6.7,3.4-12.9,1.6-18.8-2.1c-16.1-10.1-32.2-20.3-48.3-30.5
			c-3.6-2.3-7.3-4.6-10.9-6.9c-2.6-1.7-4-4-2.7-7.2c7.8-4,15-3.2,22.4,1.7c13.8,9.2,28,17.9,42.1,26.5
			C805.6,298.6,811.7,303.3,818.6,306.4L818.6,306.4z"/>
		<path class="st6" d="M818.6,306.4c-7-3.1-13-7.8-19.5-11.8c-14.2-8.7-28.3-17.4-42.1-26.5c-7.4-4.9-14.6-5.7-22.4-1.7
			c3.6-5.4,9.1-6.8,16.1-4.1c6.5,2.5,12.2,6.7,18,10.4c14.6,9.1,29.2,18.3,43.7,27.5C815,301.8,817.5,303.4,818.6,306.4L818.6,306.4
			z"/>
		<path class="st5" d="M561.5,391.3c-6.1-0.8-11.7-1.5-17.2-2.3c-1.6-0.2-3.5-0.3-4-2.2c-0.5-1.8,1.3-2.5,2.3-3.5
			c4.3-4.9,9.8-3,14.9-2.4c7,0.8,14,2,21.1,2.8c2,0.2,3.8,0.7,4.5,2.5c0.9,2.2-1,3.8-2.4,5c-9,8.1-18.1,16.2-27.3,24.1
			c-8.2,7.1-16.5,14-24.7,21c-1.8,1.5-3.7,2.8-6.3,2.1c-2.9-0.7-6.6-0.8-7.6-3.9c-1-3.1,2.4-4.7,4.4-6.5
			C533,415.9,547,403.9,561.5,391.3L561.5,391.3z"/>
		<path class="st5" d="M549,436.8c3.9-0.2,7.1,0.6,8.2,4.1c1.2,3.6-1.5,5.9-4.1,7.7c-2.1,1.5-4.6,2.3-7.1,2c-3.2-0.4-7.2-0.6-8-4.7
			c-0.8-4.2,2.4-6.3,5.6-7.9C545.4,437.1,547.4,436.4,549,436.8L549,436.8z"/>
		<path class="st5" d="M647.2,429.4c-8.4-8.9-19.1-14.3-31.2-13c-22.9,2.5-39,16.7-51.6,34.9c-4.2,6.1-2.8,12,2.9,16.9
			c8,6.8,17.1,10.8,27.8,10.8l0,0c17,0,47.5-20.7,53.7-36.5C650.6,437.9,650.8,433.2,647.2,429.4z M632.2,439.9
			c-8.7,11.8-19.3,21.4-33.1,27c-1.8,0.7-3.9,0.8-5.8,1.2c0,0,0,0,0,0c0,0,0,0,0,0c0,0,0,0,0,0h0c0,0,0,0,0,0
			c-1.9-0.2-3.7-0.5-5.4-1c-9.3-3-11-8-4.7-15.3c7.5-8.6,16-15.9,26.1-21.3c3.7-2,7.4-3,11.2-2.9c2.9,0.1,5.9,0.9,8.8,2.5
			C633.7,432.3,635.1,436,632.2,439.9z"/>
		<path class="st5" d="M690.1,454.1c-9.2-9-28.2-8.3-36.8,1.3c-4.4,4.9-3.8,9.6,1.5,13.6c3.6,2.7,7.8,3.1,12.2,2.9v0
			c0.1,0.4,0.2,0.8,0.3,1.2c-5.1,2.8-10.1,5.8-15.2,8.5c-7.3,3.9-14.8,7.6-22.1,11.5c-1.3,0.7-3,1.4-2.7,3.2
			c0.2,1.7,1.9,2.1,3.3,2.7c3.7,1.5,7,0,10.1-1.4c13.2-5.9,26.2-12.3,38.6-19.8c4.4-2.7,8.6-5.7,11.7-10
			C694.3,463,693.9,457.9,690.1,454.1z M681.5,460c-0.8,3-3.3,4.7-5.5,6.7c-1.3,1.1-2.5,2.4-4,2.4c-0.9,0-1.8-0.3-2.9-1.4
			c-0.1-0.1-0.3-0.1-0.5-0.2c-2.7-1-6.9-0.6-6.9-4.3c0-3.5,3.7-5.2,6.7-6.8c0.6-0.3,1.3-0.6,1.9-0.8c2.6-0.9,5.4-1.1,8.2,0.2
			C680.2,456.5,681.5,457.7,681.5,460L681.5,460z"/>
	</g>
	<g id="Artwork_27_00000129892462794415406000000013580340166494299787_">
		<g>
			<defs>
				<rect id="SVGID_1_" x="134" y="132" width="233.6" height="207.6"/>
			</defs>
			<clipPath id="SVGID_00000147915754789124121540000013730142204003663503_">
				<use xlink:href="#SVGID_1_"  style="overflow:visible;"/>
			</clipPath>
			<g style="clip-path:url(#SVGID_00000147915754789124121540000013730142204003663503_);">
				<defs>
					<rect id="SVGID_00000181086441343429714720000016711646983272325760_" x="134" y="132" width="233.6" height="207.6"/>
				</defs>
				<clipPath id="SVGID_00000164497302522441679100000016388806808644784025_">
					<use xlink:href="#SVGID_00000181086441343429714720000016711646983272325760_"  style="overflow:visible;"/>
				</clipPath>
				<path style="clip-path:url(#SVGID_00000164497302522441679100000016388806808644784025_);fill:#FAFAFA;" d="M273.5,154.8
					c0,12.5-10.2,22.7-22.7,22.7c-12.5,0-22.7-10.2-22.7-22.7c0-12.5,10.2-22.7,22.7-22.7C263.3,132,273.5,142.2,273.5,154.8"/>
				<path style="clip-path:url(#SVGID_00000164497302522441679100000016388806808644784025_);fill:#FAFAFA;" d="M179.4,316.9
					c0,12.5-10.2,22.7-22.7,22.7S134,329.5,134,316.9s10.2-22.7,22.7-22.7S179.4,304.4,179.4,316.9"/>
				<path style="clip-path:url(#SVGID_00000164497302522441679100000016388806808644784025_);fill:#EDEDED;" d="M367.6,316.9
					c0,12.5-10.2,22.7-22.7,22.7s-22.7-10.2-22.7-22.7s10.2-22.7,22.7-22.7S367.6,304.4,367.6,316.9"/>
			</g>
			<polygon style="clip-path:url(#SVGID_00000147915754789124121540000013730142204003663503_);fill:#FAFAFA;" points="136.4,306.8 
				230.3,145 271.2,145 365.2,306.8 			"/>
			<polygon style="clip-path:url(#SVGID_00000147915754789124121540000013730142204003663503_);fill:#EDEDED;" points="235.2,306.8 
				317.4,224.6 365.2,306.8 			"/>
			
				<rect x="156.7" y="296.4" style="clip-path:url(#SVGID_00000147915754789124121540000013730142204003663503_);fill:#FAFAFA;" width="188.1" height="43.2"/>
			<g style="clip-path:url(#SVGID_00000147915754789124121540000013730142204003663503_);">
				<defs>
					<rect id="SVGID_00000021814121753819708060000009178478022117893785_" x="134" y="132" width="233.6" height="207.6"/>
				</defs>
				<clipPath id="SVGID_00000129902488675626250250000013399732049859912336_">
					<use xlink:href="#SVGID_00000021814121753819708060000009178478022117893785_"  style="overflow:visible;"/>
				</clipPath>
				<path style="clip-path:url(#SVGID_00000129902488675626250250000013399732049859912336_);fill:#E3215C;" d="M247.3,260.9
					c0,2.2-1.7,3.9-3.9,3.9c-2.2,0-3.9-1.7-3.9-3.9s1.7-3.9,3.9-3.9C245.5,257,247.3,258.8,247.3,260.9"/>
				<path style="clip-path:url(#SVGID_00000129902488675626250250000013399732049859912336_);fill:#E3215C;" d="M262.1,260.9
					c0,2.2-1.7,3.9-3.9,3.9s-3.9-1.7-3.9-3.9s1.7-3.9,3.9-3.9S262.1,258.8,262.1,260.9"/>
				<path style="clip-path:url(#SVGID_00000129902488675626250250000013399732049859912336_);fill:#F22E66;" d="M241.6,195.2
					c0,2.2-1.7,3.9-3.9,3.9c-2.2,0-3.9-1.7-3.9-3.9s1.7-3.9,3.9-3.9C239.9,191.3,241.6,193.1,241.6,195.2"/>
				<path style="clip-path:url(#SVGID_00000129902488675626250250000013399732049859912336_);fill:#F22E66;" d="M267.8,195.2
					c0,2.2-1.7,3.9-3.9,3.9s-3.9-1.7-3.9-3.9s1.7-3.9,3.9-3.9S267.8,193.1,267.8,195.2"/>
			</g>
			
				<rect x="243.4" y="257" style="clip-path:url(#SVGID_00000147915754789124121540000013730142204003663503_);fill:#E3215C;" width="14.8" height="7.8"/>
			
				<rect x="237.7" y="191.3" style="clip-path:url(#SVGID_00000147915754789124121540000013730142204003663503_);fill:#F22E66;" width="26.1" height="7.8"/>
			<polygon style="clip-path:url(#SVGID_00000147915754789124121540000013730142204003663503_);fill:#F22E66;" points="233.8,195.2 
				239.5,260.9 262.1,260.9 267.8,195.2 			"/>
			<polygon style="clip-path:url(#SVGID_00000147915754789124121540000013730142204003663503_);fill:#E3215C;" points="237.9,242 
				239.5,260.9 262.1,260.9 266.2,213.7 			"/>
			<polygon style="clip-path:url(#SVGID_00000147915754789124121540000013730142204003663503_);fill:#EDEDED;" points="245.6,296.4 
				202.3,339.7 344.9,339.7 344.9,296.4 			"/>
			<g style="clip-path:url(#SVGID_00000147915754789124121540000013730142204003663503_);">
				<defs>
					<rect id="SVGID_00000177448060674583040680000004730390548361105067_" x="134" y="132" width="233.6" height="207.6"/>
				</defs>
				<clipPath id="SVGID_00000037684812389387809880000000378120708314233739_">
					<use xlink:href="#SVGID_00000177448060674583040680000004730390548361105067_"  style="overflow:visible;"/>
				</clipPath>
				<path style="clip-path:url(#SVGID_00000037684812389387809880000000378120708314233739_);fill:#F22E66;" d="M266.4,291.2
					c0,8.6-7,15.6-15.6,15.6c-8.6,0-15.6-7-15.6-15.6c0-8.6,7-15.6,15.6-15.6C259.4,275.7,266.4,282.6,266.4,291.2"/>
				<path style="clip-path:url(#SVGID_00000037684812389387809880000000378120708314233739_);fill:#E3215C;" d="M239.8,302.2
					c2.8,2.8,6.7,4.6,11,4.6c8.6,0,15.6-7,15.6-15.6c0-4.3-1.7-8.2-4.6-11L239.8,302.2z"/>
			</g>
		</g>
	</g>
</g>
</svg>
