<svg xmlns="http://www.w3.org/2000/svg" viewBox="0 0 180 160"><defs></defs><title>Warning</title><g id="Warning"><circle class="fill-platinum" cx="90" cy="17.5" r="17.5"/><circle class="fill-platinum" cx="17.5" cy="142.5" r="17.5"/><circle class="fill-platinum-dark" cx="162.5" cy="142.5" r="17.5"/><polygon class="fill-platinum" points="1.84 134.68 74.19 10 105.75 10 178.16 134.68 1.84 134.68"/><polygon class="fill-platinum-dark" points="78 134.68 141.36 71.32 178.16 134.68 78 134.68"/><rect class="fill-platinum" x="17.5" y="126.68" width="145" height="33.32"/><circle class="fill-tomato" cx="84.29" cy="99.31" r="3"/><circle class="fill-tomato" cx="95.71" cy="99.31" r="3"/><circle class="fill-tomato-dark" cx="79.93" cy="48.69" r="3"/><circle class="fill-tomato-dark" cx="100.07" cy="48.69" r="3"/><rect class="fill-tomato" x="84.29" y="96.31" width="11.42" height="6"/><rect class="fill-tomato-dark" x="79.93" y="45.69" width="20.15" height="6"/><polygon class="fill-tomato-dark" points="76.93 48.69 81.29 99.31 98.71 99.31 103.07 48.69 76.93 48.69"/><polygon class="fill-tomato" points="80.03 84.75 81.29 99.31 98.71 99.31 101.84 62.94 80.03 84.75"/><polygon class="fill-platinum-dark" points="162.5 126.68 86 126.68 52.64 160 162.5 160 162.5 126.68"/><circle class="fill-tomato-dark" cx="90" cy="122.68" r="12"/><path class="fill-tomato" d="M81.51,131.17a12,12,0,0,0,17-17Z"/></g></svg>
