<svg xmlns="http://www.w3.org/2000/svg" viewBox="0 0 131.7 131.6"><path fill="#ce1e55" d="M19.4 27.2C19.4 12.2 31.6 0 46.6 0c7.2 0 14.1 2.9 19.2 8L27.3 46.5c-5.1-5.1-8-12.1-7.9-19.3"/><path fill="#e2215b" d="M46.5 27.2c10.6 10.7 10.5 28-.2 38.5-10.6 10.5-27.7 10.5-38.3 0l38.5-38.5z"/><path fill="#079b7f" d="M27.2 112.2C12.2 112.2 0 100 0 85c0-7.2 2.9-14.2 8-19.3l38.5 38.5c-5.1 5.1-12.1 8-19.3 8"/><path fill="#00c9a2" d="M27.5 85.2c10.6-10.7 27.8-10.8 38.5-.3s10.8 27.8.2 38.5l-.2.2-38.5-38.4z"/><path fill="#f2b700" d="M77.3 85.2c0-15 12.2-27.2 27.2-27.2 7.2 0 14.1 2.9 19.3 8l-38.5 38.5c-5.1-5.2-8-12.1-8-19.3"/><path fill="#daa727" d="M104.5 85.2c10.6 10.6 10.6 27.8 0 38.5s-27.8 10.6-38.5 0l38.5-38.5z"/><path fill="#0fa3cf" d="M104.5 19.5c15 0 27.2 12.2 27.2 27.2 0 7.2-2.9 14.1-8 19.3L85.3 27.5c5-5.1 12-8 19.2-8"/><path fill="#13b3e2" d="M104.3 46.5c-10.6 10.7-27.8 10.8-38.5.2S55 18.9 65.6 8.2l.2-.2 38.5 38.5z"/></svg>