<?xml version="1.0" encoding="utf-8"?>
<!-- Generator: Adobe Illustrator 26.5.0, SVG Export Plug-In . SVG Version: 6.00 Build 0)  -->
<svg version="1.1" id="Layer_1" xmlns="http://www.w3.org/2000/svg" xmlns:xlink="http://www.w3.org/1999/xlink" x="0px" y="0px"
	 viewBox="0 0 174.3 162.5" style="enable-background:new 0 0 174.3 162.5;" xml:space="preserve">
<style type="text/css">
	.st0{fill:#010101;}
</style>
<rect x="120.8" y="32.4" transform="matrix(0.8225 -0.5687 0.5687 0.8225 6.2742 91.1478)" class="st0" width="56.7" height="6.1"/>
<rect x="57.9" y="7.2" transform="matrix(0.5687 -0.8225 0.8225 0.5687 -2.951 65.447)" class="st0" width="6.2" height="56.7"/>
<path class="st0" d="M87.7,119c3.3-3.1,7.4-10.7,6.6-12.8h21.6c-0.9,2.1,3.3,9.7,6.6,12.8H87.7z"/>
<path class="st0" d="M105.1,32.5c-19.4,0-35.2,17.4-35.2,39C69.9,81,73.1,90.2,79,97.6l52.2-52.2C124.7,37.5,115.4,32.5,105.1,32.5z
	"/>
<path class="st0" d="M79,97.6c6.4,7.9,15.7,12.9,26.1,12.9c19.4,0,35.1-17.4,35.1-39c0.1-9.5-3.1-18.7-9.1-26.1L79,97.6z"/>
<path class="st0" d="M17.6,43.2c1.6-1.6,3.7-5.3,3.3-6.4h10.8c-0.4,1.1,1.7,4.8,3.3,6.4L17.6,43.2z"/>
<path class="st0" d="M26.2,0C16.5,0,8.7,8.7,8.7,19.5c0,4.7,1.6,9.3,4.5,13l26.1-26C36.1,2.4,31.3,0.1,26.2,0z"/>
<path class="st0" d="M13.2,32.5c3.1,4,7.9,6.4,13,6.4c9.7,0,17.6-8.7,17.6-19.5c0-4.7-1.6-9.3-4.5-13L13.2,32.5z"/>
<path class="st0" d="M36.7,42.1l-23,23H0c0-11.6,8.2-21.3,19.3-24.2c4.3,2.2,9.5,2.2,13.8,0C34.3,41.2,35.5,41.6,36.7,42.1z"/>
<path class="st0" d="M36.7,42.1l-23,23h38.8C52.3,54.9,46.1,45.8,36.7,42.1z"/>
<path class="st0" d="M126,116.5l-45.9,45.9H52.7c0-23.1,16.3-42.5,38.5-48.3c8.7,4.5,19,4.5,27.7,0
	C121.3,114.8,123.7,115.6,126,116.5z"/>
<path class="st0" d="M126,116.5l-45.9,45.9h77.4C157.2,142.2,144.8,124.1,126,116.5z"/>
</svg>
