<svg xmlns="http://www.w3.org/2000/svg" viewBox="0 0 280 240"><defs></defs><title>Add A Place</title><g id="add-a-place" data-name="Add A Place"><circle class="fill-sea-green" cx="112" cy="128" r="112"/><circle class="fill-sea-green" cx="112" cy="128" r="112"/><ellipse class="fill-platinum" cx="224.5" cy="56" rx="55.5" ry="56"/><rect class="fill-sea-green" x="220.5" y="38" width="8" height="36"/><rect class="fill-sea-green" x="220.5" y="38" width="8" height="36" transform="translate(168.5 280.5) rotate(-90)"/><polygon class="fill-tomato" points="73.04 133 56.41 191 82.96 191 140.96 133 73.04 133"/><polygon class="fill-tomato-dark" points="150.96 133 141.04 133 83.04 191 167.59 191 150.96 133"/><path class="fill-platinum" d="M134.63,73.84,121.28,87.18A14.81,14.81,0,0,0,100.45,108L86.89,121.57c-10.53-14.62-11.48-34.16,2-47.32A33.49,33.49,0,0,1,134.63,73.84Z"/><path class="fill-platinum-dark" d="M139.69,117.74c-8.79,14.08-20.21,25.48-25.23,41.79h-5c-5-15.11-13.86-25.81-22.6-38L100.45,108a14.81,14.81,0,1,0,20.83-20.83l13.34-13.34C146.89,85.25,148.4,103.77,139.69,117.74Z"/></g></svg>
