<svg xmlns="http://www.w3.org/2000/svg" viewBox="0 0 80 94"><defs></defs><title>Edit - Green</title><g id="Edit_-_Green" data-name="Edit - Green"><rect class="fill-sea-green" x="27.08" y="3.95" width="10" height="70.72" transform="translate(37.19 -11.17) rotate(45)"/><rect class="fill-sea-green-dark" x="34.15" y="11.02" width="10" height="70.72" transform="translate(44.26 -14.1) rotate(45)"/><circle class="fill-tomato" cx="73.46" cy="13.49" r="5" transform="translate(11.98 55.9) rotate(-45)"/><circle class="fill-tomato-dark" cx="64.98" cy="5" r="5" transform="translate(15.5 47.41) rotate(-45)"/><rect class="fill-tomato" x="63.27" y="11.33" width="11" height="12.28" transform="translate(32.5 -43.51) rotate(45)"/><rect class="fill-tomato-dark" x="55.49" y="3.55" width="11" height="12.28" transform="translate(24.72 -40.29) rotate(45)"/><rect class="fill-tomato" x="66.83" y="5.74" width="6" height="14.28" transform="translate(29.56 -45.6) rotate(45)"/><rect class="fill-tomato-dark" x="62.58" y="1.49" width="6" height="14.28" transform="translate(25.32 -43.85) rotate(45)"/><circle class="fill-tomato-dark" cx="53.46" cy="10.86" r="3" transform="translate(7.98 40.98) rotate(-45)"/><circle class="fill-tomato-dark" cx="67.61" cy="25" r="3" transform="translate(2.12 55.13) rotate(-45)"/><rect class="fill-tomato-dark" x="50.53" y="14.93" width="20" height="6" transform="translate(30.41 -37.55) rotate(45)"/><rect class="fill-platinum" x="0.57" y="63.69" width="10" height="4.27" transform="translate(48.17 15.34) rotate(45)"/><rect class="fill-platinum-dark" x="7.64" y="70.76" width="10" height="4.27" transform="translate(55.25 12.41) rotate(45)"/><polygon class="fill-platinum-dark" points="0 78.46 14.67 77.94 7.59 70.87 0 78.46"/><polygon class="fill-platinum" points="0 78.46 0.52 63.8 7.59 70.87 0 78.46"/><circle class="fill-platinum-dark" cx="1.61" cy="85.18" r="1.61"/><circle class="fill-platinum-dark" cx="60.51" cy="85.18" r="1.61"/><circle class="fill-platinum-dark" cx="78.39" cy="85.18" r="1.61"/><circle class="fill-platinum-dark" cx="70.71" cy="85.18" r="1.61"/><rect class="fill-platinum-dark" x="70.71" y="83.57" width="7.68" height="3.22"/><rect class="fill-platinum-dark" x="1.61" y="83.57" width="58.9" height="3.22"/><circle class="fill-platinum-dark" cx="11.61" cy="92.39" r="1.61"/><circle class="fill-platinum-dark" cx="50.51" cy="92.39" r="1.61"/><rect class="fill-platinum-dark" x="11.61" y="90.78" width="38.9" height="3.22"/></g></svg>
