<svg xmlns="http://www.w3.org/2000/svg" viewBox="0 0 176 194"><defs></defs><title>Error - Gray</title><g id="Error_-_Gray" data-name="Error - Gray"><rect class="fill-platinum" x="40.74" y="108" width="94.51" height="31.1"/><polygon class="fill-platinum-dark" points="135.26 139.1 71.86 139.1 102.98 108 135.26 108 135.26 139.1"/><path class="fill-platinum" d="M88,38.46a4.4,4.4,0,0,1-4.41-4.39V4.39a4.41,4.41,0,0,1,8.82,0V34.08A4.4,4.4,0,0,1,88,38.46Z"/><path class="fill-platinum" d="M170.82,80.82a7.14,7.14,0,0,1-7.16,7.12h0a7.14,7.14,0,0,1-7.16-7.12V63a7.14,7.14,0,0,1,7.16-7.12h0A7.14,7.14,0,0,1,170.82,63Z"/><path class="fill-platinum" d="M163.75,87.14a7.14,7.14,0,0,1-7.16,7.12h0a7.14,7.14,0,0,1-7.16-7.12V56.7a7.14,7.14,0,0,1,7.16-7.12h0a7.14,7.14,0,0,1,7.16,7.12Z"/><path class="fill-platinum" d="M5.18,80.82a7.14,7.14,0,0,0,7.16,7.12h0a7.14,7.14,0,0,0,7.16-7.12V63a7.14,7.14,0,0,0-7.16-7.12h0A7.14,7.14,0,0,0,5.18,63Z"/><path class="fill-platinum" d="M12.25,87.14a7.14,7.14,0,0,0,7.16,7.12h0a7.14,7.14,0,0,0,7.16-7.12V56.7a7.14,7.14,0,0,0-7.16-7.12h0a7.14,7.14,0,0,0-7.16,7.12Z"/><rect class="fill-platinum" x="20.37" y="134.36" width="135.26" height="59.64"/><circle class="fill-platinum" cx="20.37" cy="154.73" r="20.37"/><circle class="fill-platinum-dark" cx="155.63" cy="154.73" r="20.37"/><rect class="fill-platinum" y="154.73" width="139.48" height="39.27"/><rect class="fill-platinum-dark" x="136.73" y="154.73" width="39.27" height="39.27"/><polygon class="fill-platinum-dark" points="155.63 194 58.89 194 118 134.36 155.63 134.36 155.63 194"/><circle class="fill-platinum-dark" cx="88" cy="164.62" r="10"/><path class="fill-platinum" d="M88,154.62a10,10,0,0,0-7.07,17.07l14.14-14.14A10,10,0,0,0,88,154.62Z"/><circle class="fill-platinum-dark" cx="118" cy="164.62" r="10"/><path class="fill-platinum" d="M118,154.62a10,10,0,0,0-7.07,17.07l14.14-14.14A10,10,0,0,0,118,154.62Z"/><circle class="fill-platinum-dark" cx="58" cy="164.62" r="10"/><path class="fill-platinum" d="M58,154.62a10,10,0,0,0-7.07,17.07l14.14-14.14A10,10,0,0,0,58,154.62Z"/><circle class="fill-platinum-dark" cx="134.98" cy="42.98" r="17.88"/><circle class="fill-platinum" cx="41.02" cy="42.98" r="17.88"/><circle class="fill-platinum-dark" cx="134.98" cy="108.78" r="17.88"/><circle class="fill-platinum" cx="41.02" cy="108.78" r="17.88"/><rect class="fill-platinum" x="23.14" y="42.98" width="129.72" height="65.81"/><rect class="fill-platinum-dark" x="124.52" y="42.98" width="28.34" height="65.81"/><rect class="fill-platinum" x="41.02" y="25.09" width="93.95" height="46.25"/><polygon class="fill-platinum-dark" points="134.97 126.67 41.02 126.67 134.97 25.09 134.97 126.67"/><line class="fill-platinum-dark" x1="48.86" y1="162.7" x2="127.14" y2="84.41"/><path class="fill-platinum-dark" d="M64,82.54a2.27,2.27,0,0,1-1.6-.66L53.16,72.7a2.25,2.25,0,0,1,0-3.19,2.28,2.28,0,0,1,3.21,0l9.23,9.18A2.26,2.26,0,0,1,64,82.54Z"/><path class="fill-platinum-dark" d="M54.76,82.54a2.26,2.26,0,0,1-1.6-3.85l9.23-9.18a2.28,2.28,0,0,1,3.21,0,2.25,2.25,0,0,1,0,3.19l-9.23,9.18A2.27,2.27,0,0,1,54.76,82.54Z"/><path class="fill-platinum-dark" d="M121.24,82.54a2.27,2.27,0,0,1-1.6-.66L110.4,72.7a2.25,2.25,0,0,1,0-3.19,2.28,2.28,0,0,1,3.21,0l9.23,9.18a2.26,2.26,0,0,1-1.6,3.85Z"/><path class="fill-platinum-dark" d="M112,82.54a2.26,2.26,0,0,1-1.6-3.85l9.23-9.18a2.28,2.28,0,0,1,3.21,0,2.25,2.25,0,0,1,0,3.19l-9.23,9.18A2.27,2.27,0,0,1,112,82.54Z"/><path class="fill-platinum-dark" d="M111,106a2.59,2.59,0,0,1-2.43-1.67c-3-8-11.3-13.32-20.61-13.32s-17.59,5.35-20.61,13.32a2.6,2.6,0,0,1-3.34,1.5,2.57,2.57,0,0,1-1.51-3.32c3.78-10,14-16.65,25.46-16.65s21.69,6.69,25.46,16.65A2.59,2.59,0,0,1,111,106Z"/></g></svg>
