<?xml version="1.0" encoding="utf-8"?>
<!-- Generator: Adobe Illustrator 24.2.3, SVG Export Plug-In . SVG Version: 6.00 Build 0)  -->
<svg version="1.1" id="Layer_1" xmlns="http://www.w3.org/2000/svg" xmlns:xlink="http://www.w3.org/1999/xlink" x="0px" y="0px"
	 viewBox="0 0 512 512" style="enable-background:new 0 0 512 512;" xml:space="preserve">
<style type="text/css">
	.st0{fill:none;}
	.st1{fill:#FFFFFF;}
	.st2{fill:#DBDDDD;}
	.st3{fill:#ED448A;}
	.st4{fill:#D4127F;}
</style>
<g>
	<g id="Server_Flat">
		<rect x="249.2" y="252.4" class="st0" width="16.4" height="7.9"/>
		<rect x="174.2" y="241.8" class="st1" width="166.3" height="29.1"/>
		<path class="st1" d="M108.2,431.1V512c144.7,0,143.2,0,279.4,0v-80.9H108.2z"/>
		
			<image style="overflow:visible;opacity:0.5;enable-background:new    ;" width="913" height="1695" xlink:href="E3C640D4F7B4C2C4.png"  transform="matrix(0.2802 0 0 0.2395 122.5213 36.1756)">
		</image>
		<rect x="161.4" y="63.5" class="st2" width="177.9" height="339.9"/>
		<rect x="241.4" y="347.6" class="st0" width="19.8" height="9.5"/>
		<rect x="241.4" y="327.8" class="st0" width="19.8" height="9.9"/>
		<rect x="146.3" y="43.8" class="st1" width="91.8" height="271.3"/>
		<rect x="149.6" y="339.2" class="st1" width="200.9" height="35.2"/>
		<rect x="150.9" y="403.5" class="st1" width="200.9" height="35.2"/>
		<rect x="262.7" y="43" class="st1" width="89.3" height="272.3"/>
		<path class="st3" d="M283.7,129.9c-7.9-8.2-7.6-21.1,0.6-29c7.9-7.6,20.5-7.6,28.4,0"/>
		<path class="st4" d="M312.7,100.9c7.9,8.2,7.6,21.1-0.6,29c-7.9,7.6-20.5,7.6-28.4,0"/>
	</g>
</g>
</svg>
